G04 EAGLE Gerber RS-274X export*
G75*
%MOMM*%
%FSLAX34Y34*%
%LPD*%
%INSoldermask Top*%
%IPPOS*%
%AMOC8*
5,1,8,0,0,1.08239X$1,22.5*%
G01*
%ADD10C,4.165600*%
%ADD11P,1.869504X8X22.500000*%
%ADD12C,1.524000*%
%ADD13P,1.869504X8X112.500000*%
%ADD14P,1.869504X8X202.500000*%
%ADD15P,1.649562X8X112.500000*%
%ADD16P,1.649562X8X292.500000*%
%ADD17P,1.649562X8X202.500000*%
%ADD18P,1.951982X8X112.500000*%
%ADD19C,1.803400*%


D10*
X50800Y101600D03*
X1003300Y101600D03*
X50800Y1854200D03*
X1003300Y1854200D03*
D11*
X101600Y1676400D03*
X1714500Y876300D03*
X101600Y1651000D03*
X101600Y711200D03*
X101600Y685800D03*
X977900Y1676400D03*
X977900Y1651000D03*
X990600Y711200D03*
X990600Y685800D03*
X977900Y1790700D03*
D12*
X1428496Y1587500D02*
X1441704Y1587500D01*
X1441704Y1562100D02*
X1428496Y1562100D01*
X1428496Y1435100D02*
X1441704Y1435100D01*
X1441704Y1409700D02*
X1428496Y1409700D01*
X1428496Y1536700D02*
X1441704Y1536700D01*
X1441704Y1511300D02*
X1428496Y1511300D01*
X1428496Y1460500D02*
X1441704Y1460500D01*
X1441704Y1485900D02*
X1428496Y1485900D01*
X1428496Y1384300D02*
X1441704Y1384300D01*
X1441704Y1358900D02*
X1428496Y1358900D01*
X1504696Y1358900D02*
X1517904Y1358900D01*
X1517904Y1384300D02*
X1504696Y1384300D01*
X1504696Y1409700D02*
X1517904Y1409700D01*
X1517904Y1435100D02*
X1504696Y1435100D01*
X1504696Y1460500D02*
X1517904Y1460500D01*
X1517904Y1485900D02*
X1504696Y1485900D01*
X1504696Y1511300D02*
X1517904Y1511300D01*
X1517904Y1536700D02*
X1504696Y1536700D01*
X1504696Y1562100D02*
X1517904Y1562100D01*
X1517904Y1587500D02*
X1504696Y1587500D01*
X1263904Y1587500D02*
X1250696Y1587500D01*
X1250696Y1562100D02*
X1263904Y1562100D01*
X1263904Y1435100D02*
X1250696Y1435100D01*
X1250696Y1409700D02*
X1263904Y1409700D01*
X1263904Y1536700D02*
X1250696Y1536700D01*
X1250696Y1511300D02*
X1263904Y1511300D01*
X1263904Y1460500D02*
X1250696Y1460500D01*
X1250696Y1485900D02*
X1263904Y1485900D01*
X1263904Y1384300D02*
X1250696Y1384300D01*
X1250696Y1358900D02*
X1263904Y1358900D01*
X1326896Y1358900D02*
X1340104Y1358900D01*
X1340104Y1384300D02*
X1326896Y1384300D01*
X1326896Y1409700D02*
X1340104Y1409700D01*
X1340104Y1435100D02*
X1326896Y1435100D01*
X1326896Y1460500D02*
X1340104Y1460500D01*
X1340104Y1485900D02*
X1326896Y1485900D01*
X1326896Y1511300D02*
X1340104Y1511300D01*
X1340104Y1536700D02*
X1326896Y1536700D01*
X1326896Y1562100D02*
X1340104Y1562100D01*
X1340104Y1587500D02*
X1326896Y1587500D01*
X1428496Y673100D02*
X1441704Y673100D01*
X1441704Y647700D02*
X1428496Y647700D01*
X1428496Y520700D02*
X1441704Y520700D01*
X1441704Y495300D02*
X1428496Y495300D01*
X1428496Y622300D02*
X1441704Y622300D01*
X1441704Y596900D02*
X1428496Y596900D01*
X1428496Y546100D02*
X1441704Y546100D01*
X1441704Y571500D02*
X1428496Y571500D01*
X1428496Y469900D02*
X1441704Y469900D01*
X1441704Y444500D02*
X1428496Y444500D01*
X1504696Y444500D02*
X1517904Y444500D01*
X1517904Y469900D02*
X1504696Y469900D01*
X1504696Y495300D02*
X1517904Y495300D01*
X1517904Y520700D02*
X1504696Y520700D01*
X1504696Y546100D02*
X1517904Y546100D01*
X1517904Y571500D02*
X1504696Y571500D01*
X1504696Y596900D02*
X1517904Y596900D01*
X1517904Y622300D02*
X1504696Y622300D01*
X1504696Y647700D02*
X1517904Y647700D01*
X1517904Y673100D02*
X1504696Y673100D01*
X1263904Y673100D02*
X1250696Y673100D01*
X1250696Y647700D02*
X1263904Y647700D01*
X1263904Y520700D02*
X1250696Y520700D01*
X1250696Y495300D02*
X1263904Y495300D01*
X1263904Y622300D02*
X1250696Y622300D01*
X1250696Y596900D02*
X1263904Y596900D01*
X1263904Y546100D02*
X1250696Y546100D01*
X1250696Y571500D02*
X1263904Y571500D01*
X1263904Y469900D02*
X1250696Y469900D01*
X1250696Y444500D02*
X1263904Y444500D01*
X1326896Y444500D02*
X1340104Y444500D01*
X1340104Y469900D02*
X1326896Y469900D01*
X1326896Y495300D02*
X1340104Y495300D01*
X1340104Y520700D02*
X1326896Y520700D01*
X1326896Y546100D02*
X1340104Y546100D01*
X1340104Y571500D02*
X1326896Y571500D01*
X1326896Y596900D02*
X1340104Y596900D01*
X1340104Y622300D02*
X1326896Y622300D01*
X1326896Y647700D02*
X1340104Y647700D01*
X1340104Y673100D02*
X1326896Y673100D01*
X514604Y673100D02*
X501396Y673100D01*
X501396Y647700D02*
X514604Y647700D01*
X514604Y520700D02*
X501396Y520700D01*
X577596Y520700D02*
X590804Y520700D01*
X514604Y622300D02*
X501396Y622300D01*
X501396Y596900D02*
X514604Y596900D01*
X514604Y546100D02*
X501396Y546100D01*
X501396Y571500D02*
X514604Y571500D01*
X577596Y546100D02*
X590804Y546100D01*
X590804Y571500D02*
X577596Y571500D01*
X577596Y596900D02*
X590804Y596900D01*
X590804Y622300D02*
X577596Y622300D01*
X577596Y647700D02*
X590804Y647700D01*
X590804Y673100D02*
X577596Y673100D01*
D10*
X736600Y431800D03*
X736600Y1397000D03*
X406400Y101600D03*
D13*
X215900Y1320800D03*
X215900Y1346200D03*
X215900Y1371600D03*
X215900Y1397000D03*
X215900Y1422400D03*
X215900Y1447800D03*
X190500Y1320800D03*
X190500Y1346200D03*
X190500Y1371600D03*
X190500Y1397000D03*
X190500Y1422400D03*
X190500Y1447800D03*
X215900Y1473200D03*
X190500Y1473200D03*
X215900Y1498600D03*
X215900Y1524000D03*
X215900Y1549400D03*
X215900Y1574800D03*
X215900Y1600200D03*
X215900Y1625600D03*
X190500Y1498600D03*
X190500Y1524000D03*
X190500Y1549400D03*
X190500Y1574800D03*
X190500Y1600200D03*
X190500Y1625600D03*
X215900Y1651000D03*
X190500Y1651000D03*
X215900Y1676400D03*
X215900Y1701800D03*
X215900Y1727200D03*
X215900Y1752600D03*
X190500Y1676400D03*
X190500Y1701800D03*
X190500Y1727200D03*
X190500Y1752600D03*
X215900Y355600D03*
X215900Y381000D03*
X215900Y406400D03*
X215900Y431800D03*
X215900Y457200D03*
X215900Y482600D03*
X190500Y355600D03*
X190500Y381000D03*
X190500Y406400D03*
X190500Y431800D03*
X190500Y457200D03*
X190500Y482600D03*
X215900Y508000D03*
X190500Y508000D03*
X215900Y533400D03*
X215900Y558800D03*
X215900Y584200D03*
X215900Y609600D03*
X215900Y635000D03*
X215900Y660400D03*
X190500Y533400D03*
X190500Y558800D03*
X190500Y584200D03*
X190500Y609600D03*
X190500Y635000D03*
X190500Y660400D03*
X215900Y685800D03*
X190500Y685800D03*
X215900Y711200D03*
X215900Y736600D03*
X215900Y762000D03*
X215900Y787400D03*
X190500Y711200D03*
X190500Y736600D03*
X190500Y762000D03*
X190500Y787400D03*
D10*
X1600200Y431800D03*
X1600200Y1397000D03*
X1270000Y101600D03*
D13*
X1079500Y1320800D03*
X1079500Y1346200D03*
X1079500Y1371600D03*
X1079500Y1397000D03*
X1079500Y1422400D03*
X1079500Y1447800D03*
X1054100Y1320800D03*
X1054100Y1346200D03*
X1054100Y1371600D03*
X1054100Y1397000D03*
X1054100Y1422400D03*
X1054100Y1447800D03*
X1079500Y1473200D03*
X1054100Y1473200D03*
X1079500Y1498600D03*
X1079500Y1524000D03*
X1079500Y1549400D03*
X1079500Y1574800D03*
X1079500Y1600200D03*
X1079500Y1625600D03*
X1054100Y1498600D03*
X1054100Y1524000D03*
X1054100Y1549400D03*
X1054100Y1574800D03*
X1054100Y1600200D03*
X1054100Y1625600D03*
X1079500Y1651000D03*
X1054100Y1651000D03*
X1079500Y1676400D03*
X1079500Y1701800D03*
X1079500Y1727200D03*
X1079500Y1752600D03*
X1054100Y1676400D03*
X1054100Y1701800D03*
X1054100Y1727200D03*
X1054100Y1752600D03*
X1079500Y355600D03*
X1079500Y381000D03*
X1079500Y406400D03*
X1079500Y431800D03*
X1079500Y457200D03*
X1079500Y482600D03*
X1054100Y355600D03*
X1054100Y381000D03*
X1054100Y406400D03*
X1054100Y431800D03*
X1054100Y457200D03*
X1054100Y482600D03*
X1079500Y508000D03*
X1054100Y508000D03*
X1079500Y533400D03*
X1079500Y558800D03*
X1079500Y584200D03*
X1079500Y609600D03*
X1079500Y635000D03*
X1079500Y660400D03*
X1054100Y533400D03*
X1054100Y558800D03*
X1054100Y584200D03*
X1054100Y609600D03*
X1054100Y635000D03*
X1054100Y660400D03*
X1079500Y685800D03*
X1054100Y685800D03*
X1079500Y711200D03*
X1079500Y736600D03*
X1079500Y762000D03*
X1079500Y787400D03*
X1054100Y711200D03*
X1054100Y736600D03*
X1054100Y762000D03*
X1054100Y787400D03*
D14*
X1778000Y1841500D03*
X1752600Y1841500D03*
X1727200Y1841500D03*
X1701800Y1841500D03*
X1676400Y1841500D03*
X1651000Y1841500D03*
X1778000Y1816100D03*
X1752600Y1816100D03*
X1727200Y1816100D03*
X1701800Y1816100D03*
X1676400Y1816100D03*
X1651000Y1816100D03*
X1625600Y1841500D03*
X1625600Y1816100D03*
X1600200Y1841500D03*
X1574800Y1841500D03*
X1549400Y1841500D03*
X1524000Y1841500D03*
X1498600Y1841500D03*
X1473200Y1841500D03*
X1600200Y1816100D03*
X1574800Y1816100D03*
X1549400Y1816100D03*
X1524000Y1816100D03*
X1498600Y1816100D03*
X1473200Y1816100D03*
X1447800Y1841500D03*
X1447800Y1816100D03*
X1422400Y1841500D03*
X1397000Y1841500D03*
X1371600Y1841500D03*
X1422400Y1816100D03*
X1397000Y1816100D03*
X1371600Y1816100D03*
X1346200Y1841500D03*
X1320800Y1841500D03*
X1295400Y1841500D03*
X1270000Y1841500D03*
X1346200Y1816100D03*
X1320800Y1816100D03*
X1295400Y1816100D03*
X1270000Y1816100D03*
X1244600Y1841500D03*
X1244600Y1816100D03*
X1219200Y1841500D03*
X1193800Y1841500D03*
X1168400Y1841500D03*
X1219200Y1816100D03*
X1193800Y1816100D03*
X1168400Y1816100D03*
D15*
X1676400Y1155700D03*
X1676400Y1231900D03*
X457200Y1054100D03*
X457200Y1130300D03*
X444500Y381000D03*
X444500Y457200D03*
D16*
X495300Y457200D03*
X495300Y381000D03*
D13*
X1714500Y355600D03*
X1714500Y381000D03*
X1714500Y406400D03*
X1714500Y431800D03*
X1714500Y457200D03*
X1714500Y482600D03*
X1689100Y355600D03*
X1689100Y381000D03*
X1689100Y406400D03*
X1689100Y431800D03*
X1689100Y457200D03*
X1689100Y482600D03*
X1714500Y508000D03*
X1689100Y508000D03*
X1714500Y533400D03*
X1714500Y558800D03*
X1714500Y584200D03*
X1714500Y609600D03*
X1714500Y635000D03*
X1714500Y660400D03*
X1689100Y533400D03*
X1689100Y558800D03*
X1689100Y584200D03*
X1689100Y609600D03*
X1689100Y635000D03*
X1689100Y660400D03*
X1714500Y685800D03*
X1689100Y685800D03*
X1714500Y711200D03*
X1714500Y736600D03*
X1714500Y762000D03*
X1689100Y711200D03*
X1689100Y736600D03*
X1689100Y762000D03*
D12*
X501904Y1003300D02*
X488696Y1003300D01*
X488696Y977900D02*
X501904Y977900D01*
X501904Y850900D02*
X488696Y850900D01*
X488696Y825500D02*
X501904Y825500D01*
X501904Y952500D02*
X488696Y952500D01*
X488696Y927100D02*
X501904Y927100D01*
X501904Y876300D02*
X488696Y876300D01*
X488696Y901700D02*
X501904Y901700D01*
X564896Y825500D02*
X578104Y825500D01*
X578104Y850900D02*
X564896Y850900D01*
X564896Y876300D02*
X578104Y876300D01*
X578104Y901700D02*
X564896Y901700D01*
X564896Y927100D02*
X578104Y927100D01*
X578104Y952500D02*
X564896Y952500D01*
X564896Y977900D02*
X578104Y977900D01*
X578104Y1003300D02*
X564896Y1003300D01*
X691896Y1295400D02*
X705104Y1295400D01*
X705104Y1270000D02*
X691896Y1270000D01*
X691896Y1143000D02*
X705104Y1143000D01*
X705104Y1117600D02*
X691896Y1117600D01*
X691896Y1244600D02*
X705104Y1244600D01*
X705104Y1219200D02*
X691896Y1219200D01*
X691896Y1168400D02*
X705104Y1168400D01*
X705104Y1193800D02*
X691896Y1193800D01*
X768096Y1117600D02*
X781304Y1117600D01*
X781304Y1143000D02*
X768096Y1143000D01*
X768096Y1168400D02*
X781304Y1168400D01*
X781304Y1193800D02*
X768096Y1193800D01*
X768096Y1219200D02*
X781304Y1219200D01*
X781304Y1244600D02*
X768096Y1244600D01*
X768096Y1270000D02*
X781304Y1270000D01*
X781304Y1295400D02*
X768096Y1295400D01*
X705104Y1003300D02*
X691896Y1003300D01*
X691896Y977900D02*
X705104Y977900D01*
X705104Y850900D02*
X691896Y850900D01*
X691896Y825500D02*
X705104Y825500D01*
X705104Y952500D02*
X691896Y952500D01*
X691896Y927100D02*
X705104Y927100D01*
X705104Y876300D02*
X691896Y876300D01*
X691896Y901700D02*
X705104Y901700D01*
X768096Y825500D02*
X781304Y825500D01*
X781304Y850900D02*
X768096Y850900D01*
X768096Y876300D02*
X781304Y876300D01*
X781304Y901700D02*
X768096Y901700D01*
X768096Y927100D02*
X781304Y927100D01*
X781304Y952500D02*
X768096Y952500D01*
X768096Y977900D02*
X781304Y977900D01*
X781304Y1003300D02*
X768096Y1003300D01*
X336804Y1346200D02*
X323596Y1346200D01*
X323596Y1320800D02*
X336804Y1320800D01*
X336804Y1193800D02*
X323596Y1193800D01*
X323596Y1168400D02*
X336804Y1168400D01*
X336804Y1295400D02*
X323596Y1295400D01*
X323596Y1270000D02*
X336804Y1270000D01*
X336804Y1219200D02*
X323596Y1219200D01*
X323596Y1244600D02*
X336804Y1244600D01*
X399796Y1168400D02*
X413004Y1168400D01*
X413004Y1193800D02*
X399796Y1193800D01*
X399796Y1219200D02*
X413004Y1219200D01*
X413004Y1244600D02*
X399796Y1244600D01*
X399796Y1270000D02*
X413004Y1270000D01*
X413004Y1295400D02*
X399796Y1295400D01*
X399796Y1320800D02*
X413004Y1320800D01*
X413004Y1346200D02*
X399796Y1346200D01*
X336804Y1003300D02*
X323596Y1003300D01*
X323596Y977900D02*
X336804Y977900D01*
X336804Y850900D02*
X323596Y850900D01*
X323596Y825500D02*
X336804Y825500D01*
X336804Y952500D02*
X323596Y952500D01*
X323596Y927100D02*
X336804Y927100D01*
X336804Y876300D02*
X323596Y876300D01*
X323596Y901700D02*
X336804Y901700D01*
X399796Y825500D02*
X413004Y825500D01*
X413004Y850900D02*
X399796Y850900D01*
X399796Y876300D02*
X413004Y876300D01*
X413004Y901700D02*
X399796Y901700D01*
X399796Y927100D02*
X413004Y927100D01*
X413004Y952500D02*
X399796Y952500D01*
X399796Y977900D02*
X413004Y977900D01*
X413004Y1003300D02*
X399796Y1003300D01*
X336804Y673100D02*
X323596Y673100D01*
X323596Y647700D02*
X336804Y647700D01*
X336804Y520700D02*
X323596Y520700D01*
X399796Y520700D02*
X413004Y520700D01*
X336804Y622300D02*
X323596Y622300D01*
X323596Y596900D02*
X336804Y596900D01*
X336804Y546100D02*
X323596Y546100D01*
X323596Y571500D02*
X336804Y571500D01*
X399796Y546100D02*
X413004Y546100D01*
X413004Y571500D02*
X399796Y571500D01*
X399796Y596900D02*
X413004Y596900D01*
X413004Y622300D02*
X399796Y622300D01*
X399796Y647700D02*
X413004Y647700D01*
X413004Y673100D02*
X399796Y673100D01*
X691896Y673100D02*
X705104Y673100D01*
X705104Y647700D02*
X691896Y647700D01*
X691896Y520700D02*
X705104Y520700D01*
X768096Y520700D02*
X781304Y520700D01*
X705104Y622300D02*
X691896Y622300D01*
X691896Y596900D02*
X705104Y596900D01*
X705104Y546100D02*
X691896Y546100D01*
X691896Y571500D02*
X705104Y571500D01*
X768096Y546100D02*
X781304Y546100D01*
X781304Y571500D02*
X768096Y571500D01*
X768096Y596900D02*
X781304Y596900D01*
X781304Y622300D02*
X768096Y622300D01*
X768096Y647700D02*
X781304Y647700D01*
X781304Y673100D02*
X768096Y673100D01*
X856996Y673100D02*
X870204Y673100D01*
X870204Y647700D02*
X856996Y647700D01*
X856996Y520700D02*
X870204Y520700D01*
X933196Y520700D02*
X946404Y520700D01*
X870204Y622300D02*
X856996Y622300D01*
X856996Y596900D02*
X870204Y596900D01*
X870204Y546100D02*
X856996Y546100D01*
X856996Y571500D02*
X870204Y571500D01*
X933196Y546100D02*
X946404Y546100D01*
X946404Y571500D02*
X933196Y571500D01*
X933196Y596900D02*
X946404Y596900D01*
X946404Y622300D02*
X933196Y622300D01*
X933196Y647700D02*
X946404Y647700D01*
X946404Y673100D02*
X933196Y673100D01*
X1606296Y1651000D02*
X1619504Y1651000D01*
X1619504Y1625600D02*
X1606296Y1625600D01*
X1606296Y1498600D02*
X1619504Y1498600D01*
X1682496Y1498600D02*
X1695704Y1498600D01*
X1619504Y1600200D02*
X1606296Y1600200D01*
X1606296Y1574800D02*
X1619504Y1574800D01*
X1619504Y1524000D02*
X1606296Y1524000D01*
X1606296Y1549400D02*
X1619504Y1549400D01*
X1682496Y1524000D02*
X1695704Y1524000D01*
X1695704Y1549400D02*
X1682496Y1549400D01*
X1682496Y1574800D02*
X1695704Y1574800D01*
X1695704Y1600200D02*
X1682496Y1600200D01*
X1682496Y1625600D02*
X1695704Y1625600D01*
X1695704Y1651000D02*
X1682496Y1651000D01*
X870204Y1612900D02*
X856996Y1612900D01*
X856996Y1587500D02*
X870204Y1587500D01*
X870204Y1460500D02*
X856996Y1460500D01*
X933196Y1460500D02*
X946404Y1460500D01*
X870204Y1562100D02*
X856996Y1562100D01*
X856996Y1536700D02*
X870204Y1536700D01*
X870204Y1485900D02*
X856996Y1485900D01*
X856996Y1511300D02*
X870204Y1511300D01*
X933196Y1485900D02*
X946404Y1485900D01*
X946404Y1511300D02*
X933196Y1511300D01*
X933196Y1536700D02*
X946404Y1536700D01*
X946404Y1562100D02*
X933196Y1562100D01*
X933196Y1587500D02*
X946404Y1587500D01*
X946404Y1612900D02*
X933196Y1612900D01*
X1428496Y1155700D02*
X1441704Y1155700D01*
X1441704Y1130300D02*
X1428496Y1130300D01*
X1428496Y1104900D02*
X1441704Y1104900D01*
X1441704Y1079500D02*
X1428496Y1079500D01*
X1428496Y1054100D02*
X1441704Y1054100D01*
X1441704Y1028700D02*
X1428496Y1028700D01*
X1428496Y1003300D02*
X1441704Y1003300D01*
X1441704Y977900D02*
X1428496Y977900D01*
X1428496Y952500D02*
X1441704Y952500D01*
X1441704Y927100D02*
X1428496Y927100D01*
X1428496Y901700D02*
X1441704Y901700D01*
X1441704Y876300D02*
X1428496Y876300D01*
X1428496Y850900D02*
X1441704Y850900D01*
X1441704Y825500D02*
X1428496Y825500D01*
X1580896Y825500D02*
X1594104Y825500D01*
X1594104Y850900D02*
X1580896Y850900D01*
X1580896Y876300D02*
X1594104Y876300D01*
X1594104Y901700D02*
X1580896Y901700D01*
X1580896Y927100D02*
X1594104Y927100D01*
X1594104Y952500D02*
X1580896Y952500D01*
X1580896Y977900D02*
X1594104Y977900D01*
X1594104Y1003300D02*
X1580896Y1003300D01*
X1580896Y1028700D02*
X1594104Y1028700D01*
X1594104Y1054100D02*
X1580896Y1054100D01*
X1580896Y1079500D02*
X1594104Y1079500D01*
X1594104Y1104900D02*
X1580896Y1104900D01*
X1580896Y1130300D02*
X1594104Y1130300D01*
X1594104Y1155700D02*
X1580896Y1155700D01*
X1175004Y1155700D02*
X1161796Y1155700D01*
X1161796Y1130300D02*
X1175004Y1130300D01*
X1175004Y1104900D02*
X1161796Y1104900D01*
X1161796Y1079500D02*
X1175004Y1079500D01*
X1175004Y1054100D02*
X1161796Y1054100D01*
X1161796Y1028700D02*
X1175004Y1028700D01*
X1175004Y1003300D02*
X1161796Y1003300D01*
X1161796Y977900D02*
X1175004Y977900D01*
X1175004Y952500D02*
X1161796Y952500D01*
X1161796Y927100D02*
X1175004Y927100D01*
X1175004Y901700D02*
X1161796Y901700D01*
X1161796Y876300D02*
X1175004Y876300D01*
X1175004Y850900D02*
X1161796Y850900D01*
X1161796Y825500D02*
X1175004Y825500D01*
X1314196Y825500D02*
X1327404Y825500D01*
X1327404Y850900D02*
X1314196Y850900D01*
X1314196Y876300D02*
X1327404Y876300D01*
X1327404Y901700D02*
X1314196Y901700D01*
X1314196Y927100D02*
X1327404Y927100D01*
X1327404Y952500D02*
X1314196Y952500D01*
X1314196Y977900D02*
X1327404Y977900D01*
X1327404Y1003300D02*
X1314196Y1003300D01*
X1314196Y1028700D02*
X1327404Y1028700D01*
X1327404Y1054100D02*
X1314196Y1054100D01*
X1314196Y1079500D02*
X1327404Y1079500D01*
X1327404Y1104900D02*
X1314196Y1104900D01*
X1314196Y1130300D02*
X1327404Y1130300D01*
X1327404Y1155700D02*
X1314196Y1155700D01*
X870204Y1346200D02*
X856996Y1346200D01*
X856996Y1320800D02*
X870204Y1320800D01*
X870204Y1193800D02*
X856996Y1193800D01*
X856996Y1168400D02*
X870204Y1168400D01*
X870204Y1295400D02*
X856996Y1295400D01*
X856996Y1270000D02*
X870204Y1270000D01*
X870204Y1219200D02*
X856996Y1219200D01*
X856996Y1244600D02*
X870204Y1244600D01*
X933196Y1168400D02*
X946404Y1168400D01*
X946404Y1193800D02*
X933196Y1193800D01*
X933196Y1219200D02*
X946404Y1219200D01*
X946404Y1244600D02*
X933196Y1244600D01*
X933196Y1270000D02*
X946404Y1270000D01*
X946404Y1295400D02*
X933196Y1295400D01*
X933196Y1320800D02*
X946404Y1320800D01*
X946404Y1346200D02*
X933196Y1346200D01*
X870204Y1003300D02*
X856996Y1003300D01*
X856996Y977900D02*
X870204Y977900D01*
X870204Y850900D02*
X856996Y850900D01*
X856996Y825500D02*
X870204Y825500D01*
X870204Y952500D02*
X856996Y952500D01*
X856996Y927100D02*
X870204Y927100D01*
X870204Y876300D02*
X856996Y876300D01*
X856996Y901700D02*
X870204Y901700D01*
X933196Y825500D02*
X946404Y825500D01*
X946404Y850900D02*
X933196Y850900D01*
X933196Y876300D02*
X946404Y876300D01*
X946404Y901700D02*
X933196Y901700D01*
X933196Y927100D02*
X946404Y927100D01*
X946404Y952500D02*
X933196Y952500D01*
X933196Y977900D02*
X946404Y977900D01*
X946404Y1003300D02*
X933196Y1003300D01*
X501904Y1346200D02*
X488696Y1346200D01*
X488696Y1320800D02*
X501904Y1320800D01*
X501904Y1193800D02*
X488696Y1193800D01*
X488696Y1168400D02*
X501904Y1168400D01*
X501904Y1295400D02*
X488696Y1295400D01*
X488696Y1270000D02*
X501904Y1270000D01*
X501904Y1219200D02*
X488696Y1219200D01*
X488696Y1244600D02*
X501904Y1244600D01*
X564896Y1168400D02*
X578104Y1168400D01*
X578104Y1193800D02*
X564896Y1193800D01*
X564896Y1219200D02*
X578104Y1219200D01*
X578104Y1244600D02*
X564896Y1244600D01*
X564896Y1270000D02*
X578104Y1270000D01*
X578104Y1295400D02*
X564896Y1295400D01*
X564896Y1320800D02*
X578104Y1320800D01*
X578104Y1346200D02*
X564896Y1346200D01*
D15*
X1638300Y1155700D03*
X1638300Y1231900D03*
D17*
X406400Y1371600D03*
X381000Y1371600D03*
X571500Y1371600D03*
X546100Y1371600D03*
X406400Y1028700D03*
X381000Y1028700D03*
X571500Y1028700D03*
X546100Y1028700D03*
X774700Y1320800D03*
X749300Y1320800D03*
X939800Y1638300D03*
X914400Y1638300D03*
X939800Y1371600D03*
X914400Y1371600D03*
X774700Y1028700D03*
X749300Y1028700D03*
X939800Y1028700D03*
X914400Y1028700D03*
X406400Y698500D03*
X381000Y698500D03*
X774700Y698500D03*
X749300Y698500D03*
X584200Y698500D03*
X558800Y698500D03*
X1333500Y698500D03*
X1308100Y698500D03*
X939800Y698500D03*
X914400Y698500D03*
X1689100Y1689100D03*
X1663700Y1689100D03*
X1511300Y698500D03*
X1485900Y698500D03*
X1320800Y1181100D03*
X1295400Y1181100D03*
X1587500Y1181100D03*
X1562100Y1181100D03*
X1333500Y1612900D03*
X1308100Y1612900D03*
X1511300Y1612900D03*
X1485900Y1612900D03*
D12*
X832104Y1917700D02*
X818896Y1917700D01*
X818896Y1816100D02*
X832104Y1816100D01*
X1745996Y1536700D02*
X1759204Y1536700D01*
X1759204Y1435100D02*
X1745996Y1435100D01*
X1745996Y1600200D02*
X1759204Y1600200D01*
X1759204Y1701800D02*
X1745996Y1701800D01*
D18*
X76200Y520700D03*
D19*
X76200Y495300D03*
D18*
X76200Y393700D03*
D19*
X76200Y368300D03*
M02*
