G04 EAGLE Gerber RS-274X export*
G75*
%MOMM*%
%FSLAX34Y34*%
%LPD*%
%INBoard Outline*%
%IPPOS*%
%AMOC8*
5,1,8,0,0,1.08239X$1,22.5*%
G01*
%ADD10C,0.000000*%
%ADD11C,0.254000*%


D10*
X0Y0D02*
X1803400Y0D01*
X1803400Y1879600D01*
X1117600Y1879600D01*
X1117600Y1955800D01*
X0Y1955800D01*
X0Y0D01*
X30988Y101600D02*
X30994Y102086D01*
X31012Y102572D01*
X31042Y103057D01*
X31083Y103542D01*
X31137Y104025D01*
X31202Y104507D01*
X31280Y104987D01*
X31369Y105465D01*
X31469Y105941D01*
X31582Y106414D01*
X31706Y106884D01*
X31841Y107351D01*
X31988Y107815D01*
X32146Y108274D01*
X32316Y108730D01*
X32496Y109182D01*
X32688Y109629D01*
X32890Y110071D01*
X33103Y110508D01*
X33327Y110939D01*
X33562Y111365D01*
X33807Y111785D01*
X34062Y112199D01*
X34327Y112607D01*
X34602Y113008D01*
X34887Y113402D01*
X35181Y113789D01*
X35485Y114169D01*
X35798Y114541D01*
X36120Y114905D01*
X36451Y115261D01*
X36791Y115609D01*
X37139Y115949D01*
X37495Y116280D01*
X37859Y116602D01*
X38231Y116915D01*
X38611Y117219D01*
X38998Y117513D01*
X39392Y117798D01*
X39793Y118073D01*
X40201Y118338D01*
X40615Y118593D01*
X41035Y118838D01*
X41461Y119073D01*
X41892Y119297D01*
X42329Y119510D01*
X42771Y119712D01*
X43218Y119904D01*
X43670Y120084D01*
X44126Y120254D01*
X44585Y120412D01*
X45049Y120559D01*
X45516Y120694D01*
X45986Y120818D01*
X46459Y120931D01*
X46935Y121031D01*
X47413Y121120D01*
X47893Y121198D01*
X48375Y121263D01*
X48858Y121317D01*
X49343Y121358D01*
X49828Y121388D01*
X50314Y121406D01*
X50800Y121412D01*
X51286Y121406D01*
X51772Y121388D01*
X52257Y121358D01*
X52742Y121317D01*
X53225Y121263D01*
X53707Y121198D01*
X54187Y121120D01*
X54665Y121031D01*
X55141Y120931D01*
X55614Y120818D01*
X56084Y120694D01*
X56551Y120559D01*
X57015Y120412D01*
X57474Y120254D01*
X57930Y120084D01*
X58382Y119904D01*
X58829Y119712D01*
X59271Y119510D01*
X59708Y119297D01*
X60139Y119073D01*
X60565Y118838D01*
X60985Y118593D01*
X61399Y118338D01*
X61807Y118073D01*
X62208Y117798D01*
X62602Y117513D01*
X62989Y117219D01*
X63369Y116915D01*
X63741Y116602D01*
X64105Y116280D01*
X64461Y115949D01*
X64809Y115609D01*
X65149Y115261D01*
X65480Y114905D01*
X65802Y114541D01*
X66115Y114169D01*
X66419Y113789D01*
X66713Y113402D01*
X66998Y113008D01*
X67273Y112607D01*
X67538Y112199D01*
X67793Y111785D01*
X68038Y111365D01*
X68273Y110939D01*
X68497Y110508D01*
X68710Y110071D01*
X68912Y109629D01*
X69104Y109182D01*
X69284Y108730D01*
X69454Y108274D01*
X69612Y107815D01*
X69759Y107351D01*
X69894Y106884D01*
X70018Y106414D01*
X70131Y105941D01*
X70231Y105465D01*
X70320Y104987D01*
X70398Y104507D01*
X70463Y104025D01*
X70517Y103542D01*
X70558Y103057D01*
X70588Y102572D01*
X70606Y102086D01*
X70612Y101600D01*
X70606Y101114D01*
X70588Y100628D01*
X70558Y100143D01*
X70517Y99658D01*
X70463Y99175D01*
X70398Y98693D01*
X70320Y98213D01*
X70231Y97735D01*
X70131Y97259D01*
X70018Y96786D01*
X69894Y96316D01*
X69759Y95849D01*
X69612Y95385D01*
X69454Y94926D01*
X69284Y94470D01*
X69104Y94018D01*
X68912Y93571D01*
X68710Y93129D01*
X68497Y92692D01*
X68273Y92261D01*
X68038Y91835D01*
X67793Y91415D01*
X67538Y91001D01*
X67273Y90593D01*
X66998Y90192D01*
X66713Y89798D01*
X66419Y89411D01*
X66115Y89031D01*
X65802Y88659D01*
X65480Y88295D01*
X65149Y87939D01*
X64809Y87591D01*
X64461Y87251D01*
X64105Y86920D01*
X63741Y86598D01*
X63369Y86285D01*
X62989Y85981D01*
X62602Y85687D01*
X62208Y85402D01*
X61807Y85127D01*
X61399Y84862D01*
X60985Y84607D01*
X60565Y84362D01*
X60139Y84127D01*
X59708Y83903D01*
X59271Y83690D01*
X58829Y83488D01*
X58382Y83296D01*
X57930Y83116D01*
X57474Y82946D01*
X57015Y82788D01*
X56551Y82641D01*
X56084Y82506D01*
X55614Y82382D01*
X55141Y82269D01*
X54665Y82169D01*
X54187Y82080D01*
X53707Y82002D01*
X53225Y81937D01*
X52742Y81883D01*
X52257Y81842D01*
X51772Y81812D01*
X51286Y81794D01*
X50800Y81788D01*
X50314Y81794D01*
X49828Y81812D01*
X49343Y81842D01*
X48858Y81883D01*
X48375Y81937D01*
X47893Y82002D01*
X47413Y82080D01*
X46935Y82169D01*
X46459Y82269D01*
X45986Y82382D01*
X45516Y82506D01*
X45049Y82641D01*
X44585Y82788D01*
X44126Y82946D01*
X43670Y83116D01*
X43218Y83296D01*
X42771Y83488D01*
X42329Y83690D01*
X41892Y83903D01*
X41461Y84127D01*
X41035Y84362D01*
X40615Y84607D01*
X40201Y84862D01*
X39793Y85127D01*
X39392Y85402D01*
X38998Y85687D01*
X38611Y85981D01*
X38231Y86285D01*
X37859Y86598D01*
X37495Y86920D01*
X37139Y87251D01*
X36791Y87591D01*
X36451Y87939D01*
X36120Y88295D01*
X35798Y88659D01*
X35485Y89031D01*
X35181Y89411D01*
X34887Y89798D01*
X34602Y90192D01*
X34327Y90593D01*
X34062Y91001D01*
X33807Y91415D01*
X33562Y91835D01*
X33327Y92261D01*
X33103Y92692D01*
X32890Y93129D01*
X32688Y93571D01*
X32496Y94018D01*
X32316Y94470D01*
X32146Y94926D01*
X31988Y95385D01*
X31841Y95849D01*
X31706Y96316D01*
X31582Y96786D01*
X31469Y97259D01*
X31369Y97735D01*
X31280Y98213D01*
X31202Y98693D01*
X31137Y99175D01*
X31083Y99658D01*
X31042Y100143D01*
X31012Y100628D01*
X30994Y101114D01*
X30988Y101600D01*
X983488Y101600D02*
X983494Y102086D01*
X983512Y102572D01*
X983542Y103057D01*
X983583Y103542D01*
X983637Y104025D01*
X983702Y104507D01*
X983780Y104987D01*
X983869Y105465D01*
X983969Y105941D01*
X984082Y106414D01*
X984206Y106884D01*
X984341Y107351D01*
X984488Y107815D01*
X984646Y108274D01*
X984816Y108730D01*
X984996Y109182D01*
X985188Y109629D01*
X985390Y110071D01*
X985603Y110508D01*
X985827Y110939D01*
X986062Y111365D01*
X986307Y111785D01*
X986562Y112199D01*
X986827Y112607D01*
X987102Y113008D01*
X987387Y113402D01*
X987681Y113789D01*
X987985Y114169D01*
X988298Y114541D01*
X988620Y114905D01*
X988951Y115261D01*
X989291Y115609D01*
X989639Y115949D01*
X989995Y116280D01*
X990359Y116602D01*
X990731Y116915D01*
X991111Y117219D01*
X991498Y117513D01*
X991892Y117798D01*
X992293Y118073D01*
X992701Y118338D01*
X993115Y118593D01*
X993535Y118838D01*
X993961Y119073D01*
X994392Y119297D01*
X994829Y119510D01*
X995271Y119712D01*
X995718Y119904D01*
X996170Y120084D01*
X996626Y120254D01*
X997085Y120412D01*
X997549Y120559D01*
X998016Y120694D01*
X998486Y120818D01*
X998959Y120931D01*
X999435Y121031D01*
X999913Y121120D01*
X1000393Y121198D01*
X1000875Y121263D01*
X1001358Y121317D01*
X1001843Y121358D01*
X1002328Y121388D01*
X1002814Y121406D01*
X1003300Y121412D01*
X1003786Y121406D01*
X1004272Y121388D01*
X1004757Y121358D01*
X1005242Y121317D01*
X1005725Y121263D01*
X1006207Y121198D01*
X1006687Y121120D01*
X1007165Y121031D01*
X1007641Y120931D01*
X1008114Y120818D01*
X1008584Y120694D01*
X1009051Y120559D01*
X1009515Y120412D01*
X1009974Y120254D01*
X1010430Y120084D01*
X1010882Y119904D01*
X1011329Y119712D01*
X1011771Y119510D01*
X1012208Y119297D01*
X1012639Y119073D01*
X1013065Y118838D01*
X1013485Y118593D01*
X1013899Y118338D01*
X1014307Y118073D01*
X1014708Y117798D01*
X1015102Y117513D01*
X1015489Y117219D01*
X1015869Y116915D01*
X1016241Y116602D01*
X1016605Y116280D01*
X1016961Y115949D01*
X1017309Y115609D01*
X1017649Y115261D01*
X1017980Y114905D01*
X1018302Y114541D01*
X1018615Y114169D01*
X1018919Y113789D01*
X1019213Y113402D01*
X1019498Y113008D01*
X1019773Y112607D01*
X1020038Y112199D01*
X1020293Y111785D01*
X1020538Y111365D01*
X1020773Y110939D01*
X1020997Y110508D01*
X1021210Y110071D01*
X1021412Y109629D01*
X1021604Y109182D01*
X1021784Y108730D01*
X1021954Y108274D01*
X1022112Y107815D01*
X1022259Y107351D01*
X1022394Y106884D01*
X1022518Y106414D01*
X1022631Y105941D01*
X1022731Y105465D01*
X1022820Y104987D01*
X1022898Y104507D01*
X1022963Y104025D01*
X1023017Y103542D01*
X1023058Y103057D01*
X1023088Y102572D01*
X1023106Y102086D01*
X1023112Y101600D01*
X1023106Y101114D01*
X1023088Y100628D01*
X1023058Y100143D01*
X1023017Y99658D01*
X1022963Y99175D01*
X1022898Y98693D01*
X1022820Y98213D01*
X1022731Y97735D01*
X1022631Y97259D01*
X1022518Y96786D01*
X1022394Y96316D01*
X1022259Y95849D01*
X1022112Y95385D01*
X1021954Y94926D01*
X1021784Y94470D01*
X1021604Y94018D01*
X1021412Y93571D01*
X1021210Y93129D01*
X1020997Y92692D01*
X1020773Y92261D01*
X1020538Y91835D01*
X1020293Y91415D01*
X1020038Y91001D01*
X1019773Y90593D01*
X1019498Y90192D01*
X1019213Y89798D01*
X1018919Y89411D01*
X1018615Y89031D01*
X1018302Y88659D01*
X1017980Y88295D01*
X1017649Y87939D01*
X1017309Y87591D01*
X1016961Y87251D01*
X1016605Y86920D01*
X1016241Y86598D01*
X1015869Y86285D01*
X1015489Y85981D01*
X1015102Y85687D01*
X1014708Y85402D01*
X1014307Y85127D01*
X1013899Y84862D01*
X1013485Y84607D01*
X1013065Y84362D01*
X1012639Y84127D01*
X1012208Y83903D01*
X1011771Y83690D01*
X1011329Y83488D01*
X1010882Y83296D01*
X1010430Y83116D01*
X1009974Y82946D01*
X1009515Y82788D01*
X1009051Y82641D01*
X1008584Y82506D01*
X1008114Y82382D01*
X1007641Y82269D01*
X1007165Y82169D01*
X1006687Y82080D01*
X1006207Y82002D01*
X1005725Y81937D01*
X1005242Y81883D01*
X1004757Y81842D01*
X1004272Y81812D01*
X1003786Y81794D01*
X1003300Y81788D01*
X1002814Y81794D01*
X1002328Y81812D01*
X1001843Y81842D01*
X1001358Y81883D01*
X1000875Y81937D01*
X1000393Y82002D01*
X999913Y82080D01*
X999435Y82169D01*
X998959Y82269D01*
X998486Y82382D01*
X998016Y82506D01*
X997549Y82641D01*
X997085Y82788D01*
X996626Y82946D01*
X996170Y83116D01*
X995718Y83296D01*
X995271Y83488D01*
X994829Y83690D01*
X994392Y83903D01*
X993961Y84127D01*
X993535Y84362D01*
X993115Y84607D01*
X992701Y84862D01*
X992293Y85127D01*
X991892Y85402D01*
X991498Y85687D01*
X991111Y85981D01*
X990731Y86285D01*
X990359Y86598D01*
X989995Y86920D01*
X989639Y87251D01*
X989291Y87591D01*
X988951Y87939D01*
X988620Y88295D01*
X988298Y88659D01*
X987985Y89031D01*
X987681Y89411D01*
X987387Y89798D01*
X987102Y90192D01*
X986827Y90593D01*
X986562Y91001D01*
X986307Y91415D01*
X986062Y91835D01*
X985827Y92261D01*
X985603Y92692D01*
X985390Y93129D01*
X985188Y93571D01*
X984996Y94018D01*
X984816Y94470D01*
X984646Y94926D01*
X984488Y95385D01*
X984341Y95849D01*
X984206Y96316D01*
X984082Y96786D01*
X983969Y97259D01*
X983869Y97735D01*
X983780Y98213D01*
X983702Y98693D01*
X983637Y99175D01*
X983583Y99658D01*
X983542Y100143D01*
X983512Y100628D01*
X983494Y101114D01*
X983488Y101600D01*
X30988Y1854200D02*
X30994Y1854686D01*
X31012Y1855172D01*
X31042Y1855657D01*
X31083Y1856142D01*
X31137Y1856625D01*
X31202Y1857107D01*
X31280Y1857587D01*
X31369Y1858065D01*
X31469Y1858541D01*
X31582Y1859014D01*
X31706Y1859484D01*
X31841Y1859951D01*
X31988Y1860415D01*
X32146Y1860874D01*
X32316Y1861330D01*
X32496Y1861782D01*
X32688Y1862229D01*
X32890Y1862671D01*
X33103Y1863108D01*
X33327Y1863539D01*
X33562Y1863965D01*
X33807Y1864385D01*
X34062Y1864799D01*
X34327Y1865207D01*
X34602Y1865608D01*
X34887Y1866002D01*
X35181Y1866389D01*
X35485Y1866769D01*
X35798Y1867141D01*
X36120Y1867505D01*
X36451Y1867861D01*
X36791Y1868209D01*
X37139Y1868549D01*
X37495Y1868880D01*
X37859Y1869202D01*
X38231Y1869515D01*
X38611Y1869819D01*
X38998Y1870113D01*
X39392Y1870398D01*
X39793Y1870673D01*
X40201Y1870938D01*
X40615Y1871193D01*
X41035Y1871438D01*
X41461Y1871673D01*
X41892Y1871897D01*
X42329Y1872110D01*
X42771Y1872312D01*
X43218Y1872504D01*
X43670Y1872684D01*
X44126Y1872854D01*
X44585Y1873012D01*
X45049Y1873159D01*
X45516Y1873294D01*
X45986Y1873418D01*
X46459Y1873531D01*
X46935Y1873631D01*
X47413Y1873720D01*
X47893Y1873798D01*
X48375Y1873863D01*
X48858Y1873917D01*
X49343Y1873958D01*
X49828Y1873988D01*
X50314Y1874006D01*
X50800Y1874012D01*
X51286Y1874006D01*
X51772Y1873988D01*
X52257Y1873958D01*
X52742Y1873917D01*
X53225Y1873863D01*
X53707Y1873798D01*
X54187Y1873720D01*
X54665Y1873631D01*
X55141Y1873531D01*
X55614Y1873418D01*
X56084Y1873294D01*
X56551Y1873159D01*
X57015Y1873012D01*
X57474Y1872854D01*
X57930Y1872684D01*
X58382Y1872504D01*
X58829Y1872312D01*
X59271Y1872110D01*
X59708Y1871897D01*
X60139Y1871673D01*
X60565Y1871438D01*
X60985Y1871193D01*
X61399Y1870938D01*
X61807Y1870673D01*
X62208Y1870398D01*
X62602Y1870113D01*
X62989Y1869819D01*
X63369Y1869515D01*
X63741Y1869202D01*
X64105Y1868880D01*
X64461Y1868549D01*
X64809Y1868209D01*
X65149Y1867861D01*
X65480Y1867505D01*
X65802Y1867141D01*
X66115Y1866769D01*
X66419Y1866389D01*
X66713Y1866002D01*
X66998Y1865608D01*
X67273Y1865207D01*
X67538Y1864799D01*
X67793Y1864385D01*
X68038Y1863965D01*
X68273Y1863539D01*
X68497Y1863108D01*
X68710Y1862671D01*
X68912Y1862229D01*
X69104Y1861782D01*
X69284Y1861330D01*
X69454Y1860874D01*
X69612Y1860415D01*
X69759Y1859951D01*
X69894Y1859484D01*
X70018Y1859014D01*
X70131Y1858541D01*
X70231Y1858065D01*
X70320Y1857587D01*
X70398Y1857107D01*
X70463Y1856625D01*
X70517Y1856142D01*
X70558Y1855657D01*
X70588Y1855172D01*
X70606Y1854686D01*
X70612Y1854200D01*
X70606Y1853714D01*
X70588Y1853228D01*
X70558Y1852743D01*
X70517Y1852258D01*
X70463Y1851775D01*
X70398Y1851293D01*
X70320Y1850813D01*
X70231Y1850335D01*
X70131Y1849859D01*
X70018Y1849386D01*
X69894Y1848916D01*
X69759Y1848449D01*
X69612Y1847985D01*
X69454Y1847526D01*
X69284Y1847070D01*
X69104Y1846618D01*
X68912Y1846171D01*
X68710Y1845729D01*
X68497Y1845292D01*
X68273Y1844861D01*
X68038Y1844435D01*
X67793Y1844015D01*
X67538Y1843601D01*
X67273Y1843193D01*
X66998Y1842792D01*
X66713Y1842398D01*
X66419Y1842011D01*
X66115Y1841631D01*
X65802Y1841259D01*
X65480Y1840895D01*
X65149Y1840539D01*
X64809Y1840191D01*
X64461Y1839851D01*
X64105Y1839520D01*
X63741Y1839198D01*
X63369Y1838885D01*
X62989Y1838581D01*
X62602Y1838287D01*
X62208Y1838002D01*
X61807Y1837727D01*
X61399Y1837462D01*
X60985Y1837207D01*
X60565Y1836962D01*
X60139Y1836727D01*
X59708Y1836503D01*
X59271Y1836290D01*
X58829Y1836088D01*
X58382Y1835896D01*
X57930Y1835716D01*
X57474Y1835546D01*
X57015Y1835388D01*
X56551Y1835241D01*
X56084Y1835106D01*
X55614Y1834982D01*
X55141Y1834869D01*
X54665Y1834769D01*
X54187Y1834680D01*
X53707Y1834602D01*
X53225Y1834537D01*
X52742Y1834483D01*
X52257Y1834442D01*
X51772Y1834412D01*
X51286Y1834394D01*
X50800Y1834388D01*
X50314Y1834394D01*
X49828Y1834412D01*
X49343Y1834442D01*
X48858Y1834483D01*
X48375Y1834537D01*
X47893Y1834602D01*
X47413Y1834680D01*
X46935Y1834769D01*
X46459Y1834869D01*
X45986Y1834982D01*
X45516Y1835106D01*
X45049Y1835241D01*
X44585Y1835388D01*
X44126Y1835546D01*
X43670Y1835716D01*
X43218Y1835896D01*
X42771Y1836088D01*
X42329Y1836290D01*
X41892Y1836503D01*
X41461Y1836727D01*
X41035Y1836962D01*
X40615Y1837207D01*
X40201Y1837462D01*
X39793Y1837727D01*
X39392Y1838002D01*
X38998Y1838287D01*
X38611Y1838581D01*
X38231Y1838885D01*
X37859Y1839198D01*
X37495Y1839520D01*
X37139Y1839851D01*
X36791Y1840191D01*
X36451Y1840539D01*
X36120Y1840895D01*
X35798Y1841259D01*
X35485Y1841631D01*
X35181Y1842011D01*
X34887Y1842398D01*
X34602Y1842792D01*
X34327Y1843193D01*
X34062Y1843601D01*
X33807Y1844015D01*
X33562Y1844435D01*
X33327Y1844861D01*
X33103Y1845292D01*
X32890Y1845729D01*
X32688Y1846171D01*
X32496Y1846618D01*
X32316Y1847070D01*
X32146Y1847526D01*
X31988Y1847985D01*
X31841Y1848449D01*
X31706Y1848916D01*
X31582Y1849386D01*
X31469Y1849859D01*
X31369Y1850335D01*
X31280Y1850813D01*
X31202Y1851293D01*
X31137Y1851775D01*
X31083Y1852258D01*
X31042Y1852743D01*
X31012Y1853228D01*
X30994Y1853714D01*
X30988Y1854200D01*
X983488Y1854200D02*
X983494Y1854686D01*
X983512Y1855172D01*
X983542Y1855657D01*
X983583Y1856142D01*
X983637Y1856625D01*
X983702Y1857107D01*
X983780Y1857587D01*
X983869Y1858065D01*
X983969Y1858541D01*
X984082Y1859014D01*
X984206Y1859484D01*
X984341Y1859951D01*
X984488Y1860415D01*
X984646Y1860874D01*
X984816Y1861330D01*
X984996Y1861782D01*
X985188Y1862229D01*
X985390Y1862671D01*
X985603Y1863108D01*
X985827Y1863539D01*
X986062Y1863965D01*
X986307Y1864385D01*
X986562Y1864799D01*
X986827Y1865207D01*
X987102Y1865608D01*
X987387Y1866002D01*
X987681Y1866389D01*
X987985Y1866769D01*
X988298Y1867141D01*
X988620Y1867505D01*
X988951Y1867861D01*
X989291Y1868209D01*
X989639Y1868549D01*
X989995Y1868880D01*
X990359Y1869202D01*
X990731Y1869515D01*
X991111Y1869819D01*
X991498Y1870113D01*
X991892Y1870398D01*
X992293Y1870673D01*
X992701Y1870938D01*
X993115Y1871193D01*
X993535Y1871438D01*
X993961Y1871673D01*
X994392Y1871897D01*
X994829Y1872110D01*
X995271Y1872312D01*
X995718Y1872504D01*
X996170Y1872684D01*
X996626Y1872854D01*
X997085Y1873012D01*
X997549Y1873159D01*
X998016Y1873294D01*
X998486Y1873418D01*
X998959Y1873531D01*
X999435Y1873631D01*
X999913Y1873720D01*
X1000393Y1873798D01*
X1000875Y1873863D01*
X1001358Y1873917D01*
X1001843Y1873958D01*
X1002328Y1873988D01*
X1002814Y1874006D01*
X1003300Y1874012D01*
X1003786Y1874006D01*
X1004272Y1873988D01*
X1004757Y1873958D01*
X1005242Y1873917D01*
X1005725Y1873863D01*
X1006207Y1873798D01*
X1006687Y1873720D01*
X1007165Y1873631D01*
X1007641Y1873531D01*
X1008114Y1873418D01*
X1008584Y1873294D01*
X1009051Y1873159D01*
X1009515Y1873012D01*
X1009974Y1872854D01*
X1010430Y1872684D01*
X1010882Y1872504D01*
X1011329Y1872312D01*
X1011771Y1872110D01*
X1012208Y1871897D01*
X1012639Y1871673D01*
X1013065Y1871438D01*
X1013485Y1871193D01*
X1013899Y1870938D01*
X1014307Y1870673D01*
X1014708Y1870398D01*
X1015102Y1870113D01*
X1015489Y1869819D01*
X1015869Y1869515D01*
X1016241Y1869202D01*
X1016605Y1868880D01*
X1016961Y1868549D01*
X1017309Y1868209D01*
X1017649Y1867861D01*
X1017980Y1867505D01*
X1018302Y1867141D01*
X1018615Y1866769D01*
X1018919Y1866389D01*
X1019213Y1866002D01*
X1019498Y1865608D01*
X1019773Y1865207D01*
X1020038Y1864799D01*
X1020293Y1864385D01*
X1020538Y1863965D01*
X1020773Y1863539D01*
X1020997Y1863108D01*
X1021210Y1862671D01*
X1021412Y1862229D01*
X1021604Y1861782D01*
X1021784Y1861330D01*
X1021954Y1860874D01*
X1022112Y1860415D01*
X1022259Y1859951D01*
X1022394Y1859484D01*
X1022518Y1859014D01*
X1022631Y1858541D01*
X1022731Y1858065D01*
X1022820Y1857587D01*
X1022898Y1857107D01*
X1022963Y1856625D01*
X1023017Y1856142D01*
X1023058Y1855657D01*
X1023088Y1855172D01*
X1023106Y1854686D01*
X1023112Y1854200D01*
X1023106Y1853714D01*
X1023088Y1853228D01*
X1023058Y1852743D01*
X1023017Y1852258D01*
X1022963Y1851775D01*
X1022898Y1851293D01*
X1022820Y1850813D01*
X1022731Y1850335D01*
X1022631Y1849859D01*
X1022518Y1849386D01*
X1022394Y1848916D01*
X1022259Y1848449D01*
X1022112Y1847985D01*
X1021954Y1847526D01*
X1021784Y1847070D01*
X1021604Y1846618D01*
X1021412Y1846171D01*
X1021210Y1845729D01*
X1020997Y1845292D01*
X1020773Y1844861D01*
X1020538Y1844435D01*
X1020293Y1844015D01*
X1020038Y1843601D01*
X1019773Y1843193D01*
X1019498Y1842792D01*
X1019213Y1842398D01*
X1018919Y1842011D01*
X1018615Y1841631D01*
X1018302Y1841259D01*
X1017980Y1840895D01*
X1017649Y1840539D01*
X1017309Y1840191D01*
X1016961Y1839851D01*
X1016605Y1839520D01*
X1016241Y1839198D01*
X1015869Y1838885D01*
X1015489Y1838581D01*
X1015102Y1838287D01*
X1014708Y1838002D01*
X1014307Y1837727D01*
X1013899Y1837462D01*
X1013485Y1837207D01*
X1013065Y1836962D01*
X1012639Y1836727D01*
X1012208Y1836503D01*
X1011771Y1836290D01*
X1011329Y1836088D01*
X1010882Y1835896D01*
X1010430Y1835716D01*
X1009974Y1835546D01*
X1009515Y1835388D01*
X1009051Y1835241D01*
X1008584Y1835106D01*
X1008114Y1834982D01*
X1007641Y1834869D01*
X1007165Y1834769D01*
X1006687Y1834680D01*
X1006207Y1834602D01*
X1005725Y1834537D01*
X1005242Y1834483D01*
X1004757Y1834442D01*
X1004272Y1834412D01*
X1003786Y1834394D01*
X1003300Y1834388D01*
X1002814Y1834394D01*
X1002328Y1834412D01*
X1001843Y1834442D01*
X1001358Y1834483D01*
X1000875Y1834537D01*
X1000393Y1834602D01*
X999913Y1834680D01*
X999435Y1834769D01*
X998959Y1834869D01*
X998486Y1834982D01*
X998016Y1835106D01*
X997549Y1835241D01*
X997085Y1835388D01*
X996626Y1835546D01*
X996170Y1835716D01*
X995718Y1835896D01*
X995271Y1836088D01*
X994829Y1836290D01*
X994392Y1836503D01*
X993961Y1836727D01*
X993535Y1836962D01*
X993115Y1837207D01*
X992701Y1837462D01*
X992293Y1837727D01*
X991892Y1838002D01*
X991498Y1838287D01*
X991111Y1838581D01*
X990731Y1838885D01*
X990359Y1839198D01*
X989995Y1839520D01*
X989639Y1839851D01*
X989291Y1840191D01*
X988951Y1840539D01*
X988620Y1840895D01*
X988298Y1841259D01*
X987985Y1841631D01*
X987681Y1842011D01*
X987387Y1842398D01*
X987102Y1842792D01*
X986827Y1843193D01*
X986562Y1843601D01*
X986307Y1844015D01*
X986062Y1844435D01*
X985827Y1844861D01*
X985603Y1845292D01*
X985390Y1845729D01*
X985188Y1846171D01*
X984996Y1846618D01*
X984816Y1847070D01*
X984646Y1847526D01*
X984488Y1847985D01*
X984341Y1848449D01*
X984206Y1848916D01*
X984082Y1849386D01*
X983969Y1849859D01*
X983869Y1850335D01*
X983780Y1850813D01*
X983702Y1851293D01*
X983637Y1851775D01*
X983583Y1852258D01*
X983542Y1852743D01*
X983512Y1853228D01*
X983494Y1853714D01*
X983488Y1854200D01*
X716788Y431800D02*
X716794Y432286D01*
X716812Y432772D01*
X716842Y433257D01*
X716883Y433742D01*
X716937Y434225D01*
X717002Y434707D01*
X717080Y435187D01*
X717169Y435665D01*
X717269Y436141D01*
X717382Y436614D01*
X717506Y437084D01*
X717641Y437551D01*
X717788Y438015D01*
X717946Y438474D01*
X718116Y438930D01*
X718296Y439382D01*
X718488Y439829D01*
X718690Y440271D01*
X718903Y440708D01*
X719127Y441139D01*
X719362Y441565D01*
X719607Y441985D01*
X719862Y442399D01*
X720127Y442807D01*
X720402Y443208D01*
X720687Y443602D01*
X720981Y443989D01*
X721285Y444369D01*
X721598Y444741D01*
X721920Y445105D01*
X722251Y445461D01*
X722591Y445809D01*
X722939Y446149D01*
X723295Y446480D01*
X723659Y446802D01*
X724031Y447115D01*
X724411Y447419D01*
X724798Y447713D01*
X725192Y447998D01*
X725593Y448273D01*
X726001Y448538D01*
X726415Y448793D01*
X726835Y449038D01*
X727261Y449273D01*
X727692Y449497D01*
X728129Y449710D01*
X728571Y449912D01*
X729018Y450104D01*
X729470Y450284D01*
X729926Y450454D01*
X730385Y450612D01*
X730849Y450759D01*
X731316Y450894D01*
X731786Y451018D01*
X732259Y451131D01*
X732735Y451231D01*
X733213Y451320D01*
X733693Y451398D01*
X734175Y451463D01*
X734658Y451517D01*
X735143Y451558D01*
X735628Y451588D01*
X736114Y451606D01*
X736600Y451612D01*
X737086Y451606D01*
X737572Y451588D01*
X738057Y451558D01*
X738542Y451517D01*
X739025Y451463D01*
X739507Y451398D01*
X739987Y451320D01*
X740465Y451231D01*
X740941Y451131D01*
X741414Y451018D01*
X741884Y450894D01*
X742351Y450759D01*
X742815Y450612D01*
X743274Y450454D01*
X743730Y450284D01*
X744182Y450104D01*
X744629Y449912D01*
X745071Y449710D01*
X745508Y449497D01*
X745939Y449273D01*
X746365Y449038D01*
X746785Y448793D01*
X747199Y448538D01*
X747607Y448273D01*
X748008Y447998D01*
X748402Y447713D01*
X748789Y447419D01*
X749169Y447115D01*
X749541Y446802D01*
X749905Y446480D01*
X750261Y446149D01*
X750609Y445809D01*
X750949Y445461D01*
X751280Y445105D01*
X751602Y444741D01*
X751915Y444369D01*
X752219Y443989D01*
X752513Y443602D01*
X752798Y443208D01*
X753073Y442807D01*
X753338Y442399D01*
X753593Y441985D01*
X753838Y441565D01*
X754073Y441139D01*
X754297Y440708D01*
X754510Y440271D01*
X754712Y439829D01*
X754904Y439382D01*
X755084Y438930D01*
X755254Y438474D01*
X755412Y438015D01*
X755559Y437551D01*
X755694Y437084D01*
X755818Y436614D01*
X755931Y436141D01*
X756031Y435665D01*
X756120Y435187D01*
X756198Y434707D01*
X756263Y434225D01*
X756317Y433742D01*
X756358Y433257D01*
X756388Y432772D01*
X756406Y432286D01*
X756412Y431800D01*
X756406Y431314D01*
X756388Y430828D01*
X756358Y430343D01*
X756317Y429858D01*
X756263Y429375D01*
X756198Y428893D01*
X756120Y428413D01*
X756031Y427935D01*
X755931Y427459D01*
X755818Y426986D01*
X755694Y426516D01*
X755559Y426049D01*
X755412Y425585D01*
X755254Y425126D01*
X755084Y424670D01*
X754904Y424218D01*
X754712Y423771D01*
X754510Y423329D01*
X754297Y422892D01*
X754073Y422461D01*
X753838Y422035D01*
X753593Y421615D01*
X753338Y421201D01*
X753073Y420793D01*
X752798Y420392D01*
X752513Y419998D01*
X752219Y419611D01*
X751915Y419231D01*
X751602Y418859D01*
X751280Y418495D01*
X750949Y418139D01*
X750609Y417791D01*
X750261Y417451D01*
X749905Y417120D01*
X749541Y416798D01*
X749169Y416485D01*
X748789Y416181D01*
X748402Y415887D01*
X748008Y415602D01*
X747607Y415327D01*
X747199Y415062D01*
X746785Y414807D01*
X746365Y414562D01*
X745939Y414327D01*
X745508Y414103D01*
X745071Y413890D01*
X744629Y413688D01*
X744182Y413496D01*
X743730Y413316D01*
X743274Y413146D01*
X742815Y412988D01*
X742351Y412841D01*
X741884Y412706D01*
X741414Y412582D01*
X740941Y412469D01*
X740465Y412369D01*
X739987Y412280D01*
X739507Y412202D01*
X739025Y412137D01*
X738542Y412083D01*
X738057Y412042D01*
X737572Y412012D01*
X737086Y411994D01*
X736600Y411988D01*
X736114Y411994D01*
X735628Y412012D01*
X735143Y412042D01*
X734658Y412083D01*
X734175Y412137D01*
X733693Y412202D01*
X733213Y412280D01*
X732735Y412369D01*
X732259Y412469D01*
X731786Y412582D01*
X731316Y412706D01*
X730849Y412841D01*
X730385Y412988D01*
X729926Y413146D01*
X729470Y413316D01*
X729018Y413496D01*
X728571Y413688D01*
X728129Y413890D01*
X727692Y414103D01*
X727261Y414327D01*
X726835Y414562D01*
X726415Y414807D01*
X726001Y415062D01*
X725593Y415327D01*
X725192Y415602D01*
X724798Y415887D01*
X724411Y416181D01*
X724031Y416485D01*
X723659Y416798D01*
X723295Y417120D01*
X722939Y417451D01*
X722591Y417791D01*
X722251Y418139D01*
X721920Y418495D01*
X721598Y418859D01*
X721285Y419231D01*
X720981Y419611D01*
X720687Y419998D01*
X720402Y420392D01*
X720127Y420793D01*
X719862Y421201D01*
X719607Y421615D01*
X719362Y422035D01*
X719127Y422461D01*
X718903Y422892D01*
X718690Y423329D01*
X718488Y423771D01*
X718296Y424218D01*
X718116Y424670D01*
X717946Y425126D01*
X717788Y425585D01*
X717641Y426049D01*
X717506Y426516D01*
X717382Y426986D01*
X717269Y427459D01*
X717169Y427935D01*
X717080Y428413D01*
X717002Y428893D01*
X716937Y429375D01*
X716883Y429858D01*
X716842Y430343D01*
X716812Y430828D01*
X716794Y431314D01*
X716788Y431800D01*
X716788Y1397000D02*
X716794Y1397486D01*
X716812Y1397972D01*
X716842Y1398457D01*
X716883Y1398942D01*
X716937Y1399425D01*
X717002Y1399907D01*
X717080Y1400387D01*
X717169Y1400865D01*
X717269Y1401341D01*
X717382Y1401814D01*
X717506Y1402284D01*
X717641Y1402751D01*
X717788Y1403215D01*
X717946Y1403674D01*
X718116Y1404130D01*
X718296Y1404582D01*
X718488Y1405029D01*
X718690Y1405471D01*
X718903Y1405908D01*
X719127Y1406339D01*
X719362Y1406765D01*
X719607Y1407185D01*
X719862Y1407599D01*
X720127Y1408007D01*
X720402Y1408408D01*
X720687Y1408802D01*
X720981Y1409189D01*
X721285Y1409569D01*
X721598Y1409941D01*
X721920Y1410305D01*
X722251Y1410661D01*
X722591Y1411009D01*
X722939Y1411349D01*
X723295Y1411680D01*
X723659Y1412002D01*
X724031Y1412315D01*
X724411Y1412619D01*
X724798Y1412913D01*
X725192Y1413198D01*
X725593Y1413473D01*
X726001Y1413738D01*
X726415Y1413993D01*
X726835Y1414238D01*
X727261Y1414473D01*
X727692Y1414697D01*
X728129Y1414910D01*
X728571Y1415112D01*
X729018Y1415304D01*
X729470Y1415484D01*
X729926Y1415654D01*
X730385Y1415812D01*
X730849Y1415959D01*
X731316Y1416094D01*
X731786Y1416218D01*
X732259Y1416331D01*
X732735Y1416431D01*
X733213Y1416520D01*
X733693Y1416598D01*
X734175Y1416663D01*
X734658Y1416717D01*
X735143Y1416758D01*
X735628Y1416788D01*
X736114Y1416806D01*
X736600Y1416812D01*
X737086Y1416806D01*
X737572Y1416788D01*
X738057Y1416758D01*
X738542Y1416717D01*
X739025Y1416663D01*
X739507Y1416598D01*
X739987Y1416520D01*
X740465Y1416431D01*
X740941Y1416331D01*
X741414Y1416218D01*
X741884Y1416094D01*
X742351Y1415959D01*
X742815Y1415812D01*
X743274Y1415654D01*
X743730Y1415484D01*
X744182Y1415304D01*
X744629Y1415112D01*
X745071Y1414910D01*
X745508Y1414697D01*
X745939Y1414473D01*
X746365Y1414238D01*
X746785Y1413993D01*
X747199Y1413738D01*
X747607Y1413473D01*
X748008Y1413198D01*
X748402Y1412913D01*
X748789Y1412619D01*
X749169Y1412315D01*
X749541Y1412002D01*
X749905Y1411680D01*
X750261Y1411349D01*
X750609Y1411009D01*
X750949Y1410661D01*
X751280Y1410305D01*
X751602Y1409941D01*
X751915Y1409569D01*
X752219Y1409189D01*
X752513Y1408802D01*
X752798Y1408408D01*
X753073Y1408007D01*
X753338Y1407599D01*
X753593Y1407185D01*
X753838Y1406765D01*
X754073Y1406339D01*
X754297Y1405908D01*
X754510Y1405471D01*
X754712Y1405029D01*
X754904Y1404582D01*
X755084Y1404130D01*
X755254Y1403674D01*
X755412Y1403215D01*
X755559Y1402751D01*
X755694Y1402284D01*
X755818Y1401814D01*
X755931Y1401341D01*
X756031Y1400865D01*
X756120Y1400387D01*
X756198Y1399907D01*
X756263Y1399425D01*
X756317Y1398942D01*
X756358Y1398457D01*
X756388Y1397972D01*
X756406Y1397486D01*
X756412Y1397000D01*
X756406Y1396514D01*
X756388Y1396028D01*
X756358Y1395543D01*
X756317Y1395058D01*
X756263Y1394575D01*
X756198Y1394093D01*
X756120Y1393613D01*
X756031Y1393135D01*
X755931Y1392659D01*
X755818Y1392186D01*
X755694Y1391716D01*
X755559Y1391249D01*
X755412Y1390785D01*
X755254Y1390326D01*
X755084Y1389870D01*
X754904Y1389418D01*
X754712Y1388971D01*
X754510Y1388529D01*
X754297Y1388092D01*
X754073Y1387661D01*
X753838Y1387235D01*
X753593Y1386815D01*
X753338Y1386401D01*
X753073Y1385993D01*
X752798Y1385592D01*
X752513Y1385198D01*
X752219Y1384811D01*
X751915Y1384431D01*
X751602Y1384059D01*
X751280Y1383695D01*
X750949Y1383339D01*
X750609Y1382991D01*
X750261Y1382651D01*
X749905Y1382320D01*
X749541Y1381998D01*
X749169Y1381685D01*
X748789Y1381381D01*
X748402Y1381087D01*
X748008Y1380802D01*
X747607Y1380527D01*
X747199Y1380262D01*
X746785Y1380007D01*
X746365Y1379762D01*
X745939Y1379527D01*
X745508Y1379303D01*
X745071Y1379090D01*
X744629Y1378888D01*
X744182Y1378696D01*
X743730Y1378516D01*
X743274Y1378346D01*
X742815Y1378188D01*
X742351Y1378041D01*
X741884Y1377906D01*
X741414Y1377782D01*
X740941Y1377669D01*
X740465Y1377569D01*
X739987Y1377480D01*
X739507Y1377402D01*
X739025Y1377337D01*
X738542Y1377283D01*
X738057Y1377242D01*
X737572Y1377212D01*
X737086Y1377194D01*
X736600Y1377188D01*
X736114Y1377194D01*
X735628Y1377212D01*
X735143Y1377242D01*
X734658Y1377283D01*
X734175Y1377337D01*
X733693Y1377402D01*
X733213Y1377480D01*
X732735Y1377569D01*
X732259Y1377669D01*
X731786Y1377782D01*
X731316Y1377906D01*
X730849Y1378041D01*
X730385Y1378188D01*
X729926Y1378346D01*
X729470Y1378516D01*
X729018Y1378696D01*
X728571Y1378888D01*
X728129Y1379090D01*
X727692Y1379303D01*
X727261Y1379527D01*
X726835Y1379762D01*
X726415Y1380007D01*
X726001Y1380262D01*
X725593Y1380527D01*
X725192Y1380802D01*
X724798Y1381087D01*
X724411Y1381381D01*
X724031Y1381685D01*
X723659Y1381998D01*
X723295Y1382320D01*
X722939Y1382651D01*
X722591Y1382991D01*
X722251Y1383339D01*
X721920Y1383695D01*
X721598Y1384059D01*
X721285Y1384431D01*
X720981Y1384811D01*
X720687Y1385198D01*
X720402Y1385592D01*
X720127Y1385993D01*
X719862Y1386401D01*
X719607Y1386815D01*
X719362Y1387235D01*
X719127Y1387661D01*
X718903Y1388092D01*
X718690Y1388529D01*
X718488Y1388971D01*
X718296Y1389418D01*
X718116Y1389870D01*
X717946Y1390326D01*
X717788Y1390785D01*
X717641Y1391249D01*
X717506Y1391716D01*
X717382Y1392186D01*
X717269Y1392659D01*
X717169Y1393135D01*
X717080Y1393613D01*
X717002Y1394093D01*
X716937Y1394575D01*
X716883Y1395058D01*
X716842Y1395543D01*
X716812Y1396028D01*
X716794Y1396514D01*
X716788Y1397000D01*
X386588Y101600D02*
X386594Y102086D01*
X386612Y102572D01*
X386642Y103057D01*
X386683Y103542D01*
X386737Y104025D01*
X386802Y104507D01*
X386880Y104987D01*
X386969Y105465D01*
X387069Y105941D01*
X387182Y106414D01*
X387306Y106884D01*
X387441Y107351D01*
X387588Y107815D01*
X387746Y108274D01*
X387916Y108730D01*
X388096Y109182D01*
X388288Y109629D01*
X388490Y110071D01*
X388703Y110508D01*
X388927Y110939D01*
X389162Y111365D01*
X389407Y111785D01*
X389662Y112199D01*
X389927Y112607D01*
X390202Y113008D01*
X390487Y113402D01*
X390781Y113789D01*
X391085Y114169D01*
X391398Y114541D01*
X391720Y114905D01*
X392051Y115261D01*
X392391Y115609D01*
X392739Y115949D01*
X393095Y116280D01*
X393459Y116602D01*
X393831Y116915D01*
X394211Y117219D01*
X394598Y117513D01*
X394992Y117798D01*
X395393Y118073D01*
X395801Y118338D01*
X396215Y118593D01*
X396635Y118838D01*
X397061Y119073D01*
X397492Y119297D01*
X397929Y119510D01*
X398371Y119712D01*
X398818Y119904D01*
X399270Y120084D01*
X399726Y120254D01*
X400185Y120412D01*
X400649Y120559D01*
X401116Y120694D01*
X401586Y120818D01*
X402059Y120931D01*
X402535Y121031D01*
X403013Y121120D01*
X403493Y121198D01*
X403975Y121263D01*
X404458Y121317D01*
X404943Y121358D01*
X405428Y121388D01*
X405914Y121406D01*
X406400Y121412D01*
X406886Y121406D01*
X407372Y121388D01*
X407857Y121358D01*
X408342Y121317D01*
X408825Y121263D01*
X409307Y121198D01*
X409787Y121120D01*
X410265Y121031D01*
X410741Y120931D01*
X411214Y120818D01*
X411684Y120694D01*
X412151Y120559D01*
X412615Y120412D01*
X413074Y120254D01*
X413530Y120084D01*
X413982Y119904D01*
X414429Y119712D01*
X414871Y119510D01*
X415308Y119297D01*
X415739Y119073D01*
X416165Y118838D01*
X416585Y118593D01*
X416999Y118338D01*
X417407Y118073D01*
X417808Y117798D01*
X418202Y117513D01*
X418589Y117219D01*
X418969Y116915D01*
X419341Y116602D01*
X419705Y116280D01*
X420061Y115949D01*
X420409Y115609D01*
X420749Y115261D01*
X421080Y114905D01*
X421402Y114541D01*
X421715Y114169D01*
X422019Y113789D01*
X422313Y113402D01*
X422598Y113008D01*
X422873Y112607D01*
X423138Y112199D01*
X423393Y111785D01*
X423638Y111365D01*
X423873Y110939D01*
X424097Y110508D01*
X424310Y110071D01*
X424512Y109629D01*
X424704Y109182D01*
X424884Y108730D01*
X425054Y108274D01*
X425212Y107815D01*
X425359Y107351D01*
X425494Y106884D01*
X425618Y106414D01*
X425731Y105941D01*
X425831Y105465D01*
X425920Y104987D01*
X425998Y104507D01*
X426063Y104025D01*
X426117Y103542D01*
X426158Y103057D01*
X426188Y102572D01*
X426206Y102086D01*
X426212Y101600D01*
X426206Y101114D01*
X426188Y100628D01*
X426158Y100143D01*
X426117Y99658D01*
X426063Y99175D01*
X425998Y98693D01*
X425920Y98213D01*
X425831Y97735D01*
X425731Y97259D01*
X425618Y96786D01*
X425494Y96316D01*
X425359Y95849D01*
X425212Y95385D01*
X425054Y94926D01*
X424884Y94470D01*
X424704Y94018D01*
X424512Y93571D01*
X424310Y93129D01*
X424097Y92692D01*
X423873Y92261D01*
X423638Y91835D01*
X423393Y91415D01*
X423138Y91001D01*
X422873Y90593D01*
X422598Y90192D01*
X422313Y89798D01*
X422019Y89411D01*
X421715Y89031D01*
X421402Y88659D01*
X421080Y88295D01*
X420749Y87939D01*
X420409Y87591D01*
X420061Y87251D01*
X419705Y86920D01*
X419341Y86598D01*
X418969Y86285D01*
X418589Y85981D01*
X418202Y85687D01*
X417808Y85402D01*
X417407Y85127D01*
X416999Y84862D01*
X416585Y84607D01*
X416165Y84362D01*
X415739Y84127D01*
X415308Y83903D01*
X414871Y83690D01*
X414429Y83488D01*
X413982Y83296D01*
X413530Y83116D01*
X413074Y82946D01*
X412615Y82788D01*
X412151Y82641D01*
X411684Y82506D01*
X411214Y82382D01*
X410741Y82269D01*
X410265Y82169D01*
X409787Y82080D01*
X409307Y82002D01*
X408825Y81937D01*
X408342Y81883D01*
X407857Y81842D01*
X407372Y81812D01*
X406886Y81794D01*
X406400Y81788D01*
X405914Y81794D01*
X405428Y81812D01*
X404943Y81842D01*
X404458Y81883D01*
X403975Y81937D01*
X403493Y82002D01*
X403013Y82080D01*
X402535Y82169D01*
X402059Y82269D01*
X401586Y82382D01*
X401116Y82506D01*
X400649Y82641D01*
X400185Y82788D01*
X399726Y82946D01*
X399270Y83116D01*
X398818Y83296D01*
X398371Y83488D01*
X397929Y83690D01*
X397492Y83903D01*
X397061Y84127D01*
X396635Y84362D01*
X396215Y84607D01*
X395801Y84862D01*
X395393Y85127D01*
X394992Y85402D01*
X394598Y85687D01*
X394211Y85981D01*
X393831Y86285D01*
X393459Y86598D01*
X393095Y86920D01*
X392739Y87251D01*
X392391Y87591D01*
X392051Y87939D01*
X391720Y88295D01*
X391398Y88659D01*
X391085Y89031D01*
X390781Y89411D01*
X390487Y89798D01*
X390202Y90192D01*
X389927Y90593D01*
X389662Y91001D01*
X389407Y91415D01*
X389162Y91835D01*
X388927Y92261D01*
X388703Y92692D01*
X388490Y93129D01*
X388288Y93571D01*
X388096Y94018D01*
X387916Y94470D01*
X387746Y94926D01*
X387588Y95385D01*
X387441Y95849D01*
X387306Y96316D01*
X387182Y96786D01*
X387069Y97259D01*
X386969Y97735D01*
X386880Y98213D01*
X386802Y98693D01*
X386737Y99175D01*
X386683Y99658D01*
X386642Y100143D01*
X386612Y100628D01*
X386594Y101114D01*
X386588Y101600D01*
X1580388Y431800D02*
X1580394Y432286D01*
X1580412Y432772D01*
X1580442Y433257D01*
X1580483Y433742D01*
X1580537Y434225D01*
X1580602Y434707D01*
X1580680Y435187D01*
X1580769Y435665D01*
X1580869Y436141D01*
X1580982Y436614D01*
X1581106Y437084D01*
X1581241Y437551D01*
X1581388Y438015D01*
X1581546Y438474D01*
X1581716Y438930D01*
X1581896Y439382D01*
X1582088Y439829D01*
X1582290Y440271D01*
X1582503Y440708D01*
X1582727Y441139D01*
X1582962Y441565D01*
X1583207Y441985D01*
X1583462Y442399D01*
X1583727Y442807D01*
X1584002Y443208D01*
X1584287Y443602D01*
X1584581Y443989D01*
X1584885Y444369D01*
X1585198Y444741D01*
X1585520Y445105D01*
X1585851Y445461D01*
X1586191Y445809D01*
X1586539Y446149D01*
X1586895Y446480D01*
X1587259Y446802D01*
X1587631Y447115D01*
X1588011Y447419D01*
X1588398Y447713D01*
X1588792Y447998D01*
X1589193Y448273D01*
X1589601Y448538D01*
X1590015Y448793D01*
X1590435Y449038D01*
X1590861Y449273D01*
X1591292Y449497D01*
X1591729Y449710D01*
X1592171Y449912D01*
X1592618Y450104D01*
X1593070Y450284D01*
X1593526Y450454D01*
X1593985Y450612D01*
X1594449Y450759D01*
X1594916Y450894D01*
X1595386Y451018D01*
X1595859Y451131D01*
X1596335Y451231D01*
X1596813Y451320D01*
X1597293Y451398D01*
X1597775Y451463D01*
X1598258Y451517D01*
X1598743Y451558D01*
X1599228Y451588D01*
X1599714Y451606D01*
X1600200Y451612D01*
X1600686Y451606D01*
X1601172Y451588D01*
X1601657Y451558D01*
X1602142Y451517D01*
X1602625Y451463D01*
X1603107Y451398D01*
X1603587Y451320D01*
X1604065Y451231D01*
X1604541Y451131D01*
X1605014Y451018D01*
X1605484Y450894D01*
X1605951Y450759D01*
X1606415Y450612D01*
X1606874Y450454D01*
X1607330Y450284D01*
X1607782Y450104D01*
X1608229Y449912D01*
X1608671Y449710D01*
X1609108Y449497D01*
X1609539Y449273D01*
X1609965Y449038D01*
X1610385Y448793D01*
X1610799Y448538D01*
X1611207Y448273D01*
X1611608Y447998D01*
X1612002Y447713D01*
X1612389Y447419D01*
X1612769Y447115D01*
X1613141Y446802D01*
X1613505Y446480D01*
X1613861Y446149D01*
X1614209Y445809D01*
X1614549Y445461D01*
X1614880Y445105D01*
X1615202Y444741D01*
X1615515Y444369D01*
X1615819Y443989D01*
X1616113Y443602D01*
X1616398Y443208D01*
X1616673Y442807D01*
X1616938Y442399D01*
X1617193Y441985D01*
X1617438Y441565D01*
X1617673Y441139D01*
X1617897Y440708D01*
X1618110Y440271D01*
X1618312Y439829D01*
X1618504Y439382D01*
X1618684Y438930D01*
X1618854Y438474D01*
X1619012Y438015D01*
X1619159Y437551D01*
X1619294Y437084D01*
X1619418Y436614D01*
X1619531Y436141D01*
X1619631Y435665D01*
X1619720Y435187D01*
X1619798Y434707D01*
X1619863Y434225D01*
X1619917Y433742D01*
X1619958Y433257D01*
X1619988Y432772D01*
X1620006Y432286D01*
X1620012Y431800D01*
X1620006Y431314D01*
X1619988Y430828D01*
X1619958Y430343D01*
X1619917Y429858D01*
X1619863Y429375D01*
X1619798Y428893D01*
X1619720Y428413D01*
X1619631Y427935D01*
X1619531Y427459D01*
X1619418Y426986D01*
X1619294Y426516D01*
X1619159Y426049D01*
X1619012Y425585D01*
X1618854Y425126D01*
X1618684Y424670D01*
X1618504Y424218D01*
X1618312Y423771D01*
X1618110Y423329D01*
X1617897Y422892D01*
X1617673Y422461D01*
X1617438Y422035D01*
X1617193Y421615D01*
X1616938Y421201D01*
X1616673Y420793D01*
X1616398Y420392D01*
X1616113Y419998D01*
X1615819Y419611D01*
X1615515Y419231D01*
X1615202Y418859D01*
X1614880Y418495D01*
X1614549Y418139D01*
X1614209Y417791D01*
X1613861Y417451D01*
X1613505Y417120D01*
X1613141Y416798D01*
X1612769Y416485D01*
X1612389Y416181D01*
X1612002Y415887D01*
X1611608Y415602D01*
X1611207Y415327D01*
X1610799Y415062D01*
X1610385Y414807D01*
X1609965Y414562D01*
X1609539Y414327D01*
X1609108Y414103D01*
X1608671Y413890D01*
X1608229Y413688D01*
X1607782Y413496D01*
X1607330Y413316D01*
X1606874Y413146D01*
X1606415Y412988D01*
X1605951Y412841D01*
X1605484Y412706D01*
X1605014Y412582D01*
X1604541Y412469D01*
X1604065Y412369D01*
X1603587Y412280D01*
X1603107Y412202D01*
X1602625Y412137D01*
X1602142Y412083D01*
X1601657Y412042D01*
X1601172Y412012D01*
X1600686Y411994D01*
X1600200Y411988D01*
X1599714Y411994D01*
X1599228Y412012D01*
X1598743Y412042D01*
X1598258Y412083D01*
X1597775Y412137D01*
X1597293Y412202D01*
X1596813Y412280D01*
X1596335Y412369D01*
X1595859Y412469D01*
X1595386Y412582D01*
X1594916Y412706D01*
X1594449Y412841D01*
X1593985Y412988D01*
X1593526Y413146D01*
X1593070Y413316D01*
X1592618Y413496D01*
X1592171Y413688D01*
X1591729Y413890D01*
X1591292Y414103D01*
X1590861Y414327D01*
X1590435Y414562D01*
X1590015Y414807D01*
X1589601Y415062D01*
X1589193Y415327D01*
X1588792Y415602D01*
X1588398Y415887D01*
X1588011Y416181D01*
X1587631Y416485D01*
X1587259Y416798D01*
X1586895Y417120D01*
X1586539Y417451D01*
X1586191Y417791D01*
X1585851Y418139D01*
X1585520Y418495D01*
X1585198Y418859D01*
X1584885Y419231D01*
X1584581Y419611D01*
X1584287Y419998D01*
X1584002Y420392D01*
X1583727Y420793D01*
X1583462Y421201D01*
X1583207Y421615D01*
X1582962Y422035D01*
X1582727Y422461D01*
X1582503Y422892D01*
X1582290Y423329D01*
X1582088Y423771D01*
X1581896Y424218D01*
X1581716Y424670D01*
X1581546Y425126D01*
X1581388Y425585D01*
X1581241Y426049D01*
X1581106Y426516D01*
X1580982Y426986D01*
X1580869Y427459D01*
X1580769Y427935D01*
X1580680Y428413D01*
X1580602Y428893D01*
X1580537Y429375D01*
X1580483Y429858D01*
X1580442Y430343D01*
X1580412Y430828D01*
X1580394Y431314D01*
X1580388Y431800D01*
X1580388Y1397000D02*
X1580394Y1397486D01*
X1580412Y1397972D01*
X1580442Y1398457D01*
X1580483Y1398942D01*
X1580537Y1399425D01*
X1580602Y1399907D01*
X1580680Y1400387D01*
X1580769Y1400865D01*
X1580869Y1401341D01*
X1580982Y1401814D01*
X1581106Y1402284D01*
X1581241Y1402751D01*
X1581388Y1403215D01*
X1581546Y1403674D01*
X1581716Y1404130D01*
X1581896Y1404582D01*
X1582088Y1405029D01*
X1582290Y1405471D01*
X1582503Y1405908D01*
X1582727Y1406339D01*
X1582962Y1406765D01*
X1583207Y1407185D01*
X1583462Y1407599D01*
X1583727Y1408007D01*
X1584002Y1408408D01*
X1584287Y1408802D01*
X1584581Y1409189D01*
X1584885Y1409569D01*
X1585198Y1409941D01*
X1585520Y1410305D01*
X1585851Y1410661D01*
X1586191Y1411009D01*
X1586539Y1411349D01*
X1586895Y1411680D01*
X1587259Y1412002D01*
X1587631Y1412315D01*
X1588011Y1412619D01*
X1588398Y1412913D01*
X1588792Y1413198D01*
X1589193Y1413473D01*
X1589601Y1413738D01*
X1590015Y1413993D01*
X1590435Y1414238D01*
X1590861Y1414473D01*
X1591292Y1414697D01*
X1591729Y1414910D01*
X1592171Y1415112D01*
X1592618Y1415304D01*
X1593070Y1415484D01*
X1593526Y1415654D01*
X1593985Y1415812D01*
X1594449Y1415959D01*
X1594916Y1416094D01*
X1595386Y1416218D01*
X1595859Y1416331D01*
X1596335Y1416431D01*
X1596813Y1416520D01*
X1597293Y1416598D01*
X1597775Y1416663D01*
X1598258Y1416717D01*
X1598743Y1416758D01*
X1599228Y1416788D01*
X1599714Y1416806D01*
X1600200Y1416812D01*
X1600686Y1416806D01*
X1601172Y1416788D01*
X1601657Y1416758D01*
X1602142Y1416717D01*
X1602625Y1416663D01*
X1603107Y1416598D01*
X1603587Y1416520D01*
X1604065Y1416431D01*
X1604541Y1416331D01*
X1605014Y1416218D01*
X1605484Y1416094D01*
X1605951Y1415959D01*
X1606415Y1415812D01*
X1606874Y1415654D01*
X1607330Y1415484D01*
X1607782Y1415304D01*
X1608229Y1415112D01*
X1608671Y1414910D01*
X1609108Y1414697D01*
X1609539Y1414473D01*
X1609965Y1414238D01*
X1610385Y1413993D01*
X1610799Y1413738D01*
X1611207Y1413473D01*
X1611608Y1413198D01*
X1612002Y1412913D01*
X1612389Y1412619D01*
X1612769Y1412315D01*
X1613141Y1412002D01*
X1613505Y1411680D01*
X1613861Y1411349D01*
X1614209Y1411009D01*
X1614549Y1410661D01*
X1614880Y1410305D01*
X1615202Y1409941D01*
X1615515Y1409569D01*
X1615819Y1409189D01*
X1616113Y1408802D01*
X1616398Y1408408D01*
X1616673Y1408007D01*
X1616938Y1407599D01*
X1617193Y1407185D01*
X1617438Y1406765D01*
X1617673Y1406339D01*
X1617897Y1405908D01*
X1618110Y1405471D01*
X1618312Y1405029D01*
X1618504Y1404582D01*
X1618684Y1404130D01*
X1618854Y1403674D01*
X1619012Y1403215D01*
X1619159Y1402751D01*
X1619294Y1402284D01*
X1619418Y1401814D01*
X1619531Y1401341D01*
X1619631Y1400865D01*
X1619720Y1400387D01*
X1619798Y1399907D01*
X1619863Y1399425D01*
X1619917Y1398942D01*
X1619958Y1398457D01*
X1619988Y1397972D01*
X1620006Y1397486D01*
X1620012Y1397000D01*
X1620006Y1396514D01*
X1619988Y1396028D01*
X1619958Y1395543D01*
X1619917Y1395058D01*
X1619863Y1394575D01*
X1619798Y1394093D01*
X1619720Y1393613D01*
X1619631Y1393135D01*
X1619531Y1392659D01*
X1619418Y1392186D01*
X1619294Y1391716D01*
X1619159Y1391249D01*
X1619012Y1390785D01*
X1618854Y1390326D01*
X1618684Y1389870D01*
X1618504Y1389418D01*
X1618312Y1388971D01*
X1618110Y1388529D01*
X1617897Y1388092D01*
X1617673Y1387661D01*
X1617438Y1387235D01*
X1617193Y1386815D01*
X1616938Y1386401D01*
X1616673Y1385993D01*
X1616398Y1385592D01*
X1616113Y1385198D01*
X1615819Y1384811D01*
X1615515Y1384431D01*
X1615202Y1384059D01*
X1614880Y1383695D01*
X1614549Y1383339D01*
X1614209Y1382991D01*
X1613861Y1382651D01*
X1613505Y1382320D01*
X1613141Y1381998D01*
X1612769Y1381685D01*
X1612389Y1381381D01*
X1612002Y1381087D01*
X1611608Y1380802D01*
X1611207Y1380527D01*
X1610799Y1380262D01*
X1610385Y1380007D01*
X1609965Y1379762D01*
X1609539Y1379527D01*
X1609108Y1379303D01*
X1608671Y1379090D01*
X1608229Y1378888D01*
X1607782Y1378696D01*
X1607330Y1378516D01*
X1606874Y1378346D01*
X1606415Y1378188D01*
X1605951Y1378041D01*
X1605484Y1377906D01*
X1605014Y1377782D01*
X1604541Y1377669D01*
X1604065Y1377569D01*
X1603587Y1377480D01*
X1603107Y1377402D01*
X1602625Y1377337D01*
X1602142Y1377283D01*
X1601657Y1377242D01*
X1601172Y1377212D01*
X1600686Y1377194D01*
X1600200Y1377188D01*
X1599714Y1377194D01*
X1599228Y1377212D01*
X1598743Y1377242D01*
X1598258Y1377283D01*
X1597775Y1377337D01*
X1597293Y1377402D01*
X1596813Y1377480D01*
X1596335Y1377569D01*
X1595859Y1377669D01*
X1595386Y1377782D01*
X1594916Y1377906D01*
X1594449Y1378041D01*
X1593985Y1378188D01*
X1593526Y1378346D01*
X1593070Y1378516D01*
X1592618Y1378696D01*
X1592171Y1378888D01*
X1591729Y1379090D01*
X1591292Y1379303D01*
X1590861Y1379527D01*
X1590435Y1379762D01*
X1590015Y1380007D01*
X1589601Y1380262D01*
X1589193Y1380527D01*
X1588792Y1380802D01*
X1588398Y1381087D01*
X1588011Y1381381D01*
X1587631Y1381685D01*
X1587259Y1381998D01*
X1586895Y1382320D01*
X1586539Y1382651D01*
X1586191Y1382991D01*
X1585851Y1383339D01*
X1585520Y1383695D01*
X1585198Y1384059D01*
X1584885Y1384431D01*
X1584581Y1384811D01*
X1584287Y1385198D01*
X1584002Y1385592D01*
X1583727Y1385993D01*
X1583462Y1386401D01*
X1583207Y1386815D01*
X1582962Y1387235D01*
X1582727Y1387661D01*
X1582503Y1388092D01*
X1582290Y1388529D01*
X1582088Y1388971D01*
X1581896Y1389418D01*
X1581716Y1389870D01*
X1581546Y1390326D01*
X1581388Y1390785D01*
X1581241Y1391249D01*
X1581106Y1391716D01*
X1580982Y1392186D01*
X1580869Y1392659D01*
X1580769Y1393135D01*
X1580680Y1393613D01*
X1580602Y1394093D01*
X1580537Y1394575D01*
X1580483Y1395058D01*
X1580442Y1395543D01*
X1580412Y1396028D01*
X1580394Y1396514D01*
X1580388Y1397000D01*
X1250188Y101600D02*
X1250194Y102086D01*
X1250212Y102572D01*
X1250242Y103057D01*
X1250283Y103542D01*
X1250337Y104025D01*
X1250402Y104507D01*
X1250480Y104987D01*
X1250569Y105465D01*
X1250669Y105941D01*
X1250782Y106414D01*
X1250906Y106884D01*
X1251041Y107351D01*
X1251188Y107815D01*
X1251346Y108274D01*
X1251516Y108730D01*
X1251696Y109182D01*
X1251888Y109629D01*
X1252090Y110071D01*
X1252303Y110508D01*
X1252527Y110939D01*
X1252762Y111365D01*
X1253007Y111785D01*
X1253262Y112199D01*
X1253527Y112607D01*
X1253802Y113008D01*
X1254087Y113402D01*
X1254381Y113789D01*
X1254685Y114169D01*
X1254998Y114541D01*
X1255320Y114905D01*
X1255651Y115261D01*
X1255991Y115609D01*
X1256339Y115949D01*
X1256695Y116280D01*
X1257059Y116602D01*
X1257431Y116915D01*
X1257811Y117219D01*
X1258198Y117513D01*
X1258592Y117798D01*
X1258993Y118073D01*
X1259401Y118338D01*
X1259815Y118593D01*
X1260235Y118838D01*
X1260661Y119073D01*
X1261092Y119297D01*
X1261529Y119510D01*
X1261971Y119712D01*
X1262418Y119904D01*
X1262870Y120084D01*
X1263326Y120254D01*
X1263785Y120412D01*
X1264249Y120559D01*
X1264716Y120694D01*
X1265186Y120818D01*
X1265659Y120931D01*
X1266135Y121031D01*
X1266613Y121120D01*
X1267093Y121198D01*
X1267575Y121263D01*
X1268058Y121317D01*
X1268543Y121358D01*
X1269028Y121388D01*
X1269514Y121406D01*
X1270000Y121412D01*
X1270486Y121406D01*
X1270972Y121388D01*
X1271457Y121358D01*
X1271942Y121317D01*
X1272425Y121263D01*
X1272907Y121198D01*
X1273387Y121120D01*
X1273865Y121031D01*
X1274341Y120931D01*
X1274814Y120818D01*
X1275284Y120694D01*
X1275751Y120559D01*
X1276215Y120412D01*
X1276674Y120254D01*
X1277130Y120084D01*
X1277582Y119904D01*
X1278029Y119712D01*
X1278471Y119510D01*
X1278908Y119297D01*
X1279339Y119073D01*
X1279765Y118838D01*
X1280185Y118593D01*
X1280599Y118338D01*
X1281007Y118073D01*
X1281408Y117798D01*
X1281802Y117513D01*
X1282189Y117219D01*
X1282569Y116915D01*
X1282941Y116602D01*
X1283305Y116280D01*
X1283661Y115949D01*
X1284009Y115609D01*
X1284349Y115261D01*
X1284680Y114905D01*
X1285002Y114541D01*
X1285315Y114169D01*
X1285619Y113789D01*
X1285913Y113402D01*
X1286198Y113008D01*
X1286473Y112607D01*
X1286738Y112199D01*
X1286993Y111785D01*
X1287238Y111365D01*
X1287473Y110939D01*
X1287697Y110508D01*
X1287910Y110071D01*
X1288112Y109629D01*
X1288304Y109182D01*
X1288484Y108730D01*
X1288654Y108274D01*
X1288812Y107815D01*
X1288959Y107351D01*
X1289094Y106884D01*
X1289218Y106414D01*
X1289331Y105941D01*
X1289431Y105465D01*
X1289520Y104987D01*
X1289598Y104507D01*
X1289663Y104025D01*
X1289717Y103542D01*
X1289758Y103057D01*
X1289788Y102572D01*
X1289806Y102086D01*
X1289812Y101600D01*
X1289806Y101114D01*
X1289788Y100628D01*
X1289758Y100143D01*
X1289717Y99658D01*
X1289663Y99175D01*
X1289598Y98693D01*
X1289520Y98213D01*
X1289431Y97735D01*
X1289331Y97259D01*
X1289218Y96786D01*
X1289094Y96316D01*
X1288959Y95849D01*
X1288812Y95385D01*
X1288654Y94926D01*
X1288484Y94470D01*
X1288304Y94018D01*
X1288112Y93571D01*
X1287910Y93129D01*
X1287697Y92692D01*
X1287473Y92261D01*
X1287238Y91835D01*
X1286993Y91415D01*
X1286738Y91001D01*
X1286473Y90593D01*
X1286198Y90192D01*
X1285913Y89798D01*
X1285619Y89411D01*
X1285315Y89031D01*
X1285002Y88659D01*
X1284680Y88295D01*
X1284349Y87939D01*
X1284009Y87591D01*
X1283661Y87251D01*
X1283305Y86920D01*
X1282941Y86598D01*
X1282569Y86285D01*
X1282189Y85981D01*
X1281802Y85687D01*
X1281408Y85402D01*
X1281007Y85127D01*
X1280599Y84862D01*
X1280185Y84607D01*
X1279765Y84362D01*
X1279339Y84127D01*
X1278908Y83903D01*
X1278471Y83690D01*
X1278029Y83488D01*
X1277582Y83296D01*
X1277130Y83116D01*
X1276674Y82946D01*
X1276215Y82788D01*
X1275751Y82641D01*
X1275284Y82506D01*
X1274814Y82382D01*
X1274341Y82269D01*
X1273865Y82169D01*
X1273387Y82080D01*
X1272907Y82002D01*
X1272425Y81937D01*
X1271942Y81883D01*
X1271457Y81842D01*
X1270972Y81812D01*
X1270486Y81794D01*
X1270000Y81788D01*
X1269514Y81794D01*
X1269028Y81812D01*
X1268543Y81842D01*
X1268058Y81883D01*
X1267575Y81937D01*
X1267093Y82002D01*
X1266613Y82080D01*
X1266135Y82169D01*
X1265659Y82269D01*
X1265186Y82382D01*
X1264716Y82506D01*
X1264249Y82641D01*
X1263785Y82788D01*
X1263326Y82946D01*
X1262870Y83116D01*
X1262418Y83296D01*
X1261971Y83488D01*
X1261529Y83690D01*
X1261092Y83903D01*
X1260661Y84127D01*
X1260235Y84362D01*
X1259815Y84607D01*
X1259401Y84862D01*
X1258993Y85127D01*
X1258592Y85402D01*
X1258198Y85687D01*
X1257811Y85981D01*
X1257431Y86285D01*
X1257059Y86598D01*
X1256695Y86920D01*
X1256339Y87251D01*
X1255991Y87591D01*
X1255651Y87939D01*
X1255320Y88295D01*
X1254998Y88659D01*
X1254685Y89031D01*
X1254381Y89411D01*
X1254087Y89798D01*
X1253802Y90192D01*
X1253527Y90593D01*
X1253262Y91001D01*
X1253007Y91415D01*
X1252762Y91835D01*
X1252527Y92261D01*
X1252303Y92692D01*
X1252090Y93129D01*
X1251888Y93571D01*
X1251696Y94018D01*
X1251516Y94470D01*
X1251346Y94926D01*
X1251188Y95385D01*
X1251041Y95849D01*
X1250906Y96316D01*
X1250782Y96786D01*
X1250669Y97259D01*
X1250569Y97735D01*
X1250480Y98213D01*
X1250402Y98693D01*
X1250337Y99175D01*
X1250283Y99658D01*
X1250242Y100143D01*
X1250212Y100628D01*
X1250194Y101114D01*
X1250188Y101600D01*
D11*
X0Y0D02*
X1803400Y0D01*
X1803400Y1879600D01*
X1117600Y1879600D01*
X1117600Y1955800D01*
X0Y1955800D01*
X0Y0D01*
X70612Y101001D02*
X70540Y99806D01*
X70395Y98618D01*
X70180Y97440D01*
X69893Y96277D01*
X69537Y95134D01*
X69112Y94015D01*
X68621Y92923D01*
X68064Y91863D01*
X67445Y90838D01*
X66765Y89853D01*
X66026Y88910D01*
X65233Y88014D01*
X64386Y87168D01*
X63490Y86374D01*
X62547Y85635D01*
X61562Y84955D01*
X60537Y84336D01*
X59477Y83779D01*
X58385Y83288D01*
X57266Y82863D01*
X56123Y82507D01*
X54960Y82220D01*
X53782Y82005D01*
X52594Y81860D01*
X51399Y81788D01*
X50201Y81788D01*
X49006Y81860D01*
X47818Y82005D01*
X46640Y82220D01*
X45477Y82507D01*
X44334Y82863D01*
X43215Y83288D01*
X42123Y83779D01*
X41063Y84336D01*
X40038Y84955D01*
X39053Y85635D01*
X38110Y86374D01*
X37214Y87168D01*
X36368Y88014D01*
X35574Y88910D01*
X34835Y89853D01*
X34155Y90838D01*
X33536Y91863D01*
X32979Y92923D01*
X32488Y94015D01*
X32063Y95134D01*
X31707Y96277D01*
X31420Y97440D01*
X31205Y98618D01*
X31060Y99806D01*
X30988Y101001D01*
X30988Y102199D01*
X31060Y103394D01*
X31205Y104582D01*
X31420Y105760D01*
X31707Y106923D01*
X32063Y108066D01*
X32488Y109185D01*
X32979Y110277D01*
X33536Y111337D01*
X34155Y112362D01*
X34835Y113347D01*
X35574Y114290D01*
X36368Y115186D01*
X37214Y116033D01*
X38110Y116826D01*
X39053Y117565D01*
X40038Y118245D01*
X41063Y118864D01*
X42123Y119421D01*
X43215Y119912D01*
X44334Y120337D01*
X45477Y120693D01*
X46640Y120980D01*
X47818Y121195D01*
X49006Y121340D01*
X50201Y121412D01*
X51399Y121412D01*
X52594Y121340D01*
X53782Y121195D01*
X54960Y120980D01*
X56123Y120693D01*
X57266Y120337D01*
X58385Y119912D01*
X59477Y119421D01*
X60537Y118864D01*
X61562Y118245D01*
X62547Y117565D01*
X63490Y116826D01*
X64386Y116033D01*
X65233Y115186D01*
X66026Y114290D01*
X66765Y113347D01*
X67445Y112362D01*
X68064Y111337D01*
X68621Y110277D01*
X69112Y109185D01*
X69537Y108066D01*
X69893Y106923D01*
X70180Y105760D01*
X70395Y104582D01*
X70540Y103394D01*
X70612Y102199D01*
X70612Y101001D01*
X1023112Y101001D02*
X1023040Y99806D01*
X1022895Y98618D01*
X1022680Y97440D01*
X1022393Y96277D01*
X1022037Y95134D01*
X1021612Y94015D01*
X1021121Y92923D01*
X1020564Y91863D01*
X1019945Y90838D01*
X1019265Y89853D01*
X1018526Y88910D01*
X1017733Y88014D01*
X1016886Y87168D01*
X1015990Y86374D01*
X1015047Y85635D01*
X1014062Y84955D01*
X1013037Y84336D01*
X1011977Y83779D01*
X1010885Y83288D01*
X1009766Y82863D01*
X1008623Y82507D01*
X1007460Y82220D01*
X1006282Y82005D01*
X1005094Y81860D01*
X1003899Y81788D01*
X1002701Y81788D01*
X1001506Y81860D01*
X1000318Y82005D01*
X999140Y82220D01*
X997977Y82507D01*
X996834Y82863D01*
X995715Y83288D01*
X994623Y83779D01*
X993563Y84336D01*
X992538Y84955D01*
X991553Y85635D01*
X990610Y86374D01*
X989714Y87168D01*
X988868Y88014D01*
X988074Y88910D01*
X987335Y89853D01*
X986655Y90838D01*
X986036Y91863D01*
X985479Y92923D01*
X984988Y94015D01*
X984563Y95134D01*
X984207Y96277D01*
X983920Y97440D01*
X983705Y98618D01*
X983560Y99806D01*
X983488Y101001D01*
X983488Y102199D01*
X983560Y103394D01*
X983705Y104582D01*
X983920Y105760D01*
X984207Y106923D01*
X984563Y108066D01*
X984988Y109185D01*
X985479Y110277D01*
X986036Y111337D01*
X986655Y112362D01*
X987335Y113347D01*
X988074Y114290D01*
X988868Y115186D01*
X989714Y116033D01*
X990610Y116826D01*
X991553Y117565D01*
X992538Y118245D01*
X993563Y118864D01*
X994623Y119421D01*
X995715Y119912D01*
X996834Y120337D01*
X997977Y120693D01*
X999140Y120980D01*
X1000318Y121195D01*
X1001506Y121340D01*
X1002701Y121412D01*
X1003899Y121412D01*
X1005094Y121340D01*
X1006282Y121195D01*
X1007460Y120980D01*
X1008623Y120693D01*
X1009766Y120337D01*
X1010885Y119912D01*
X1011977Y119421D01*
X1013037Y118864D01*
X1014062Y118245D01*
X1015047Y117565D01*
X1015990Y116826D01*
X1016886Y116033D01*
X1017733Y115186D01*
X1018526Y114290D01*
X1019265Y113347D01*
X1019945Y112362D01*
X1020564Y111337D01*
X1021121Y110277D01*
X1021612Y109185D01*
X1022037Y108066D01*
X1022393Y106923D01*
X1022680Y105760D01*
X1022895Y104582D01*
X1023040Y103394D01*
X1023112Y102199D01*
X1023112Y101001D01*
X70612Y1853601D02*
X70540Y1852406D01*
X70395Y1851218D01*
X70180Y1850040D01*
X69893Y1848877D01*
X69537Y1847734D01*
X69112Y1846615D01*
X68621Y1845523D01*
X68064Y1844463D01*
X67445Y1843438D01*
X66765Y1842453D01*
X66026Y1841510D01*
X65233Y1840614D01*
X64386Y1839768D01*
X63490Y1838974D01*
X62547Y1838235D01*
X61562Y1837555D01*
X60537Y1836936D01*
X59477Y1836379D01*
X58385Y1835888D01*
X57266Y1835463D01*
X56123Y1835107D01*
X54960Y1834820D01*
X53782Y1834605D01*
X52594Y1834460D01*
X51399Y1834388D01*
X50201Y1834388D01*
X49006Y1834460D01*
X47818Y1834605D01*
X46640Y1834820D01*
X45477Y1835107D01*
X44334Y1835463D01*
X43215Y1835888D01*
X42123Y1836379D01*
X41063Y1836936D01*
X40038Y1837555D01*
X39053Y1838235D01*
X38110Y1838974D01*
X37214Y1839768D01*
X36368Y1840614D01*
X35574Y1841510D01*
X34835Y1842453D01*
X34155Y1843438D01*
X33536Y1844463D01*
X32979Y1845523D01*
X32488Y1846615D01*
X32063Y1847734D01*
X31707Y1848877D01*
X31420Y1850040D01*
X31205Y1851218D01*
X31060Y1852406D01*
X30988Y1853601D01*
X30988Y1854799D01*
X31060Y1855994D01*
X31205Y1857182D01*
X31420Y1858360D01*
X31707Y1859523D01*
X32063Y1860666D01*
X32488Y1861785D01*
X32979Y1862877D01*
X33536Y1863937D01*
X34155Y1864962D01*
X34835Y1865947D01*
X35574Y1866890D01*
X36368Y1867786D01*
X37214Y1868633D01*
X38110Y1869426D01*
X39053Y1870165D01*
X40038Y1870845D01*
X41063Y1871464D01*
X42123Y1872021D01*
X43215Y1872512D01*
X44334Y1872937D01*
X45477Y1873293D01*
X46640Y1873580D01*
X47818Y1873795D01*
X49006Y1873940D01*
X50201Y1874012D01*
X51399Y1874012D01*
X52594Y1873940D01*
X53782Y1873795D01*
X54960Y1873580D01*
X56123Y1873293D01*
X57266Y1872937D01*
X58385Y1872512D01*
X59477Y1872021D01*
X60537Y1871464D01*
X61562Y1870845D01*
X62547Y1870165D01*
X63490Y1869426D01*
X64386Y1868633D01*
X65233Y1867786D01*
X66026Y1866890D01*
X66765Y1865947D01*
X67445Y1864962D01*
X68064Y1863937D01*
X68621Y1862877D01*
X69112Y1861785D01*
X69537Y1860666D01*
X69893Y1859523D01*
X70180Y1858360D01*
X70395Y1857182D01*
X70540Y1855994D01*
X70612Y1854799D01*
X70612Y1853601D01*
X1023112Y1853601D02*
X1023040Y1852406D01*
X1022895Y1851218D01*
X1022680Y1850040D01*
X1022393Y1848877D01*
X1022037Y1847734D01*
X1021612Y1846615D01*
X1021121Y1845523D01*
X1020564Y1844463D01*
X1019945Y1843438D01*
X1019265Y1842453D01*
X1018526Y1841510D01*
X1017733Y1840614D01*
X1016886Y1839768D01*
X1015990Y1838974D01*
X1015047Y1838235D01*
X1014062Y1837555D01*
X1013037Y1836936D01*
X1011977Y1836379D01*
X1010885Y1835888D01*
X1009766Y1835463D01*
X1008623Y1835107D01*
X1007460Y1834820D01*
X1006282Y1834605D01*
X1005094Y1834460D01*
X1003899Y1834388D01*
X1002701Y1834388D01*
X1001506Y1834460D01*
X1000318Y1834605D01*
X999140Y1834820D01*
X997977Y1835107D01*
X996834Y1835463D01*
X995715Y1835888D01*
X994623Y1836379D01*
X993563Y1836936D01*
X992538Y1837555D01*
X991553Y1838235D01*
X990610Y1838974D01*
X989714Y1839768D01*
X988868Y1840614D01*
X988074Y1841510D01*
X987335Y1842453D01*
X986655Y1843438D01*
X986036Y1844463D01*
X985479Y1845523D01*
X984988Y1846615D01*
X984563Y1847734D01*
X984207Y1848877D01*
X983920Y1850040D01*
X983705Y1851218D01*
X983560Y1852406D01*
X983488Y1853601D01*
X983488Y1854799D01*
X983560Y1855994D01*
X983705Y1857182D01*
X983920Y1858360D01*
X984207Y1859523D01*
X984563Y1860666D01*
X984988Y1861785D01*
X985479Y1862877D01*
X986036Y1863937D01*
X986655Y1864962D01*
X987335Y1865947D01*
X988074Y1866890D01*
X988868Y1867786D01*
X989714Y1868633D01*
X990610Y1869426D01*
X991553Y1870165D01*
X992538Y1870845D01*
X993563Y1871464D01*
X994623Y1872021D01*
X995715Y1872512D01*
X996834Y1872937D01*
X997977Y1873293D01*
X999140Y1873580D01*
X1000318Y1873795D01*
X1001506Y1873940D01*
X1002701Y1874012D01*
X1003899Y1874012D01*
X1005094Y1873940D01*
X1006282Y1873795D01*
X1007460Y1873580D01*
X1008623Y1873293D01*
X1009766Y1872937D01*
X1010885Y1872512D01*
X1011977Y1872021D01*
X1013037Y1871464D01*
X1014062Y1870845D01*
X1015047Y1870165D01*
X1015990Y1869426D01*
X1016886Y1868633D01*
X1017733Y1867786D01*
X1018526Y1866890D01*
X1019265Y1865947D01*
X1019945Y1864962D01*
X1020564Y1863937D01*
X1021121Y1862877D01*
X1021612Y1861785D01*
X1022037Y1860666D01*
X1022393Y1859523D01*
X1022680Y1858360D01*
X1022895Y1857182D01*
X1023040Y1855994D01*
X1023112Y1854799D01*
X1023112Y1853601D01*
X736001Y411988D02*
X734806Y412060D01*
X733618Y412205D01*
X732440Y412420D01*
X731277Y412707D01*
X730134Y413063D01*
X729015Y413488D01*
X727923Y413979D01*
X726863Y414536D01*
X725838Y415155D01*
X724853Y415835D01*
X723910Y416574D01*
X723014Y417368D01*
X722168Y418214D01*
X721374Y419110D01*
X720635Y420053D01*
X719955Y421038D01*
X719336Y422063D01*
X718779Y423123D01*
X718288Y424215D01*
X717863Y425334D01*
X717507Y426477D01*
X717220Y427640D01*
X717005Y428818D01*
X716860Y430006D01*
X716788Y431201D01*
X716788Y432399D01*
X716860Y433594D01*
X717005Y434782D01*
X717220Y435960D01*
X717507Y437123D01*
X717863Y438266D01*
X718288Y439385D01*
X718779Y440477D01*
X719336Y441537D01*
X719955Y442562D01*
X720635Y443547D01*
X721374Y444490D01*
X722168Y445386D01*
X723014Y446233D01*
X723910Y447026D01*
X724853Y447765D01*
X725838Y448445D01*
X726863Y449064D01*
X727923Y449621D01*
X729015Y450112D01*
X730134Y450537D01*
X731277Y450893D01*
X732440Y451180D01*
X733618Y451395D01*
X734806Y451540D01*
X736001Y451612D01*
X737199Y451612D01*
X738394Y451540D01*
X739582Y451395D01*
X740760Y451180D01*
X741923Y450893D01*
X743066Y450537D01*
X744185Y450112D01*
X745277Y449621D01*
X746337Y449064D01*
X747362Y448445D01*
X748347Y447765D01*
X749290Y447026D01*
X750186Y446233D01*
X751033Y445386D01*
X751826Y444490D01*
X752565Y443547D01*
X753245Y442562D01*
X753864Y441537D01*
X754421Y440477D01*
X754912Y439385D01*
X755337Y438266D01*
X755693Y437123D01*
X755980Y435960D01*
X756195Y434782D01*
X756340Y433594D01*
X756412Y432399D01*
X756412Y431201D01*
X756340Y430006D01*
X756195Y428818D01*
X755980Y427640D01*
X755693Y426477D01*
X755337Y425334D01*
X754912Y424215D01*
X754421Y423123D01*
X753864Y422063D01*
X753245Y421038D01*
X752565Y420053D01*
X751826Y419110D01*
X751033Y418214D01*
X750186Y417368D01*
X749290Y416574D01*
X748347Y415835D01*
X747362Y415155D01*
X746337Y414536D01*
X745277Y413979D01*
X744185Y413488D01*
X743066Y413063D01*
X741923Y412707D01*
X740760Y412420D01*
X739582Y412205D01*
X738394Y412060D01*
X737199Y411988D01*
X736001Y411988D01*
X736001Y1377188D02*
X734806Y1377260D01*
X733618Y1377405D01*
X732440Y1377620D01*
X731277Y1377907D01*
X730134Y1378263D01*
X729015Y1378688D01*
X727923Y1379179D01*
X726863Y1379736D01*
X725838Y1380355D01*
X724853Y1381035D01*
X723910Y1381774D01*
X723014Y1382568D01*
X722168Y1383414D01*
X721374Y1384310D01*
X720635Y1385253D01*
X719955Y1386238D01*
X719336Y1387263D01*
X718779Y1388323D01*
X718288Y1389415D01*
X717863Y1390534D01*
X717507Y1391677D01*
X717220Y1392840D01*
X717005Y1394018D01*
X716860Y1395206D01*
X716788Y1396401D01*
X716788Y1397599D01*
X716860Y1398794D01*
X717005Y1399982D01*
X717220Y1401160D01*
X717507Y1402323D01*
X717863Y1403466D01*
X718288Y1404585D01*
X718779Y1405677D01*
X719336Y1406737D01*
X719955Y1407762D01*
X720635Y1408747D01*
X721374Y1409690D01*
X722168Y1410586D01*
X723014Y1411433D01*
X723910Y1412226D01*
X724853Y1412965D01*
X725838Y1413645D01*
X726863Y1414264D01*
X727923Y1414821D01*
X729015Y1415312D01*
X730134Y1415737D01*
X731277Y1416093D01*
X732440Y1416380D01*
X733618Y1416595D01*
X734806Y1416740D01*
X736001Y1416812D01*
X737199Y1416812D01*
X738394Y1416740D01*
X739582Y1416595D01*
X740760Y1416380D01*
X741923Y1416093D01*
X743066Y1415737D01*
X744185Y1415312D01*
X745277Y1414821D01*
X746337Y1414264D01*
X747362Y1413645D01*
X748347Y1412965D01*
X749290Y1412226D01*
X750186Y1411433D01*
X751033Y1410586D01*
X751826Y1409690D01*
X752565Y1408747D01*
X753245Y1407762D01*
X753864Y1406737D01*
X754421Y1405677D01*
X754912Y1404585D01*
X755337Y1403466D01*
X755693Y1402323D01*
X755980Y1401160D01*
X756195Y1399982D01*
X756340Y1398794D01*
X756412Y1397599D01*
X756412Y1396401D01*
X756340Y1395206D01*
X756195Y1394018D01*
X755980Y1392840D01*
X755693Y1391677D01*
X755337Y1390534D01*
X754912Y1389415D01*
X754421Y1388323D01*
X753864Y1387263D01*
X753245Y1386238D01*
X752565Y1385253D01*
X751826Y1384310D01*
X751033Y1383414D01*
X750186Y1382568D01*
X749290Y1381774D01*
X748347Y1381035D01*
X747362Y1380355D01*
X746337Y1379736D01*
X745277Y1379179D01*
X744185Y1378688D01*
X743066Y1378263D01*
X741923Y1377907D01*
X740760Y1377620D01*
X739582Y1377405D01*
X738394Y1377260D01*
X737199Y1377188D01*
X736001Y1377188D01*
X405801Y81788D02*
X404606Y81860D01*
X403418Y82005D01*
X402240Y82220D01*
X401077Y82507D01*
X399934Y82863D01*
X398815Y83288D01*
X397723Y83779D01*
X396663Y84336D01*
X395638Y84955D01*
X394653Y85635D01*
X393710Y86374D01*
X392814Y87168D01*
X391968Y88014D01*
X391174Y88910D01*
X390435Y89853D01*
X389755Y90838D01*
X389136Y91863D01*
X388579Y92923D01*
X388088Y94015D01*
X387663Y95134D01*
X387307Y96277D01*
X387020Y97440D01*
X386805Y98618D01*
X386660Y99806D01*
X386588Y101001D01*
X386588Y102199D01*
X386660Y103394D01*
X386805Y104582D01*
X387020Y105760D01*
X387307Y106923D01*
X387663Y108066D01*
X388088Y109185D01*
X388579Y110277D01*
X389136Y111337D01*
X389755Y112362D01*
X390435Y113347D01*
X391174Y114290D01*
X391968Y115186D01*
X392814Y116033D01*
X393710Y116826D01*
X394653Y117565D01*
X395638Y118245D01*
X396663Y118864D01*
X397723Y119421D01*
X398815Y119912D01*
X399934Y120337D01*
X401077Y120693D01*
X402240Y120980D01*
X403418Y121195D01*
X404606Y121340D01*
X405801Y121412D01*
X406999Y121412D01*
X408194Y121340D01*
X409382Y121195D01*
X410560Y120980D01*
X411723Y120693D01*
X412866Y120337D01*
X413985Y119912D01*
X415077Y119421D01*
X416137Y118864D01*
X417162Y118245D01*
X418147Y117565D01*
X419090Y116826D01*
X419986Y116033D01*
X420833Y115186D01*
X421626Y114290D01*
X422365Y113347D01*
X423045Y112362D01*
X423664Y111337D01*
X424221Y110277D01*
X424712Y109185D01*
X425137Y108066D01*
X425493Y106923D01*
X425780Y105760D01*
X425995Y104582D01*
X426140Y103394D01*
X426212Y102199D01*
X426212Y101001D01*
X426140Y99806D01*
X425995Y98618D01*
X425780Y97440D01*
X425493Y96277D01*
X425137Y95134D01*
X424712Y94015D01*
X424221Y92923D01*
X423664Y91863D01*
X423045Y90838D01*
X422365Y89853D01*
X421626Y88910D01*
X420833Y88014D01*
X419986Y87168D01*
X419090Y86374D01*
X418147Y85635D01*
X417162Y84955D01*
X416137Y84336D01*
X415077Y83779D01*
X413985Y83288D01*
X412866Y82863D01*
X411723Y82507D01*
X410560Y82220D01*
X409382Y82005D01*
X408194Y81860D01*
X406999Y81788D01*
X405801Y81788D01*
X1599601Y411988D02*
X1598406Y412060D01*
X1597218Y412205D01*
X1596040Y412420D01*
X1594877Y412707D01*
X1593734Y413063D01*
X1592615Y413488D01*
X1591523Y413979D01*
X1590463Y414536D01*
X1589438Y415155D01*
X1588453Y415835D01*
X1587510Y416574D01*
X1586614Y417368D01*
X1585768Y418214D01*
X1584974Y419110D01*
X1584235Y420053D01*
X1583555Y421038D01*
X1582936Y422063D01*
X1582379Y423123D01*
X1581888Y424215D01*
X1581463Y425334D01*
X1581107Y426477D01*
X1580820Y427640D01*
X1580605Y428818D01*
X1580460Y430006D01*
X1580388Y431201D01*
X1580388Y432399D01*
X1580460Y433594D01*
X1580605Y434782D01*
X1580820Y435960D01*
X1581107Y437123D01*
X1581463Y438266D01*
X1581888Y439385D01*
X1582379Y440477D01*
X1582936Y441537D01*
X1583555Y442562D01*
X1584235Y443547D01*
X1584974Y444490D01*
X1585768Y445386D01*
X1586614Y446233D01*
X1587510Y447026D01*
X1588453Y447765D01*
X1589438Y448445D01*
X1590463Y449064D01*
X1591523Y449621D01*
X1592615Y450112D01*
X1593734Y450537D01*
X1594877Y450893D01*
X1596040Y451180D01*
X1597218Y451395D01*
X1598406Y451540D01*
X1599601Y451612D01*
X1600799Y451612D01*
X1601994Y451540D01*
X1603182Y451395D01*
X1604360Y451180D01*
X1605523Y450893D01*
X1606666Y450537D01*
X1607785Y450112D01*
X1608877Y449621D01*
X1609937Y449064D01*
X1610962Y448445D01*
X1611947Y447765D01*
X1612890Y447026D01*
X1613786Y446233D01*
X1614633Y445386D01*
X1615426Y444490D01*
X1616165Y443547D01*
X1616845Y442562D01*
X1617464Y441537D01*
X1618021Y440477D01*
X1618512Y439385D01*
X1618937Y438266D01*
X1619293Y437123D01*
X1619580Y435960D01*
X1619795Y434782D01*
X1619940Y433594D01*
X1620012Y432399D01*
X1620012Y431201D01*
X1619940Y430006D01*
X1619795Y428818D01*
X1619580Y427640D01*
X1619293Y426477D01*
X1618937Y425334D01*
X1618512Y424215D01*
X1618021Y423123D01*
X1617464Y422063D01*
X1616845Y421038D01*
X1616165Y420053D01*
X1615426Y419110D01*
X1614633Y418214D01*
X1613786Y417368D01*
X1612890Y416574D01*
X1611947Y415835D01*
X1610962Y415155D01*
X1609937Y414536D01*
X1608877Y413979D01*
X1607785Y413488D01*
X1606666Y413063D01*
X1605523Y412707D01*
X1604360Y412420D01*
X1603182Y412205D01*
X1601994Y412060D01*
X1600799Y411988D01*
X1599601Y411988D01*
X1599601Y1377188D02*
X1598406Y1377260D01*
X1597218Y1377405D01*
X1596040Y1377620D01*
X1594877Y1377907D01*
X1593734Y1378263D01*
X1592615Y1378688D01*
X1591523Y1379179D01*
X1590463Y1379736D01*
X1589438Y1380355D01*
X1588453Y1381035D01*
X1587510Y1381774D01*
X1586614Y1382568D01*
X1585768Y1383414D01*
X1584974Y1384310D01*
X1584235Y1385253D01*
X1583555Y1386238D01*
X1582936Y1387263D01*
X1582379Y1388323D01*
X1581888Y1389415D01*
X1581463Y1390534D01*
X1581107Y1391677D01*
X1580820Y1392840D01*
X1580605Y1394018D01*
X1580460Y1395206D01*
X1580388Y1396401D01*
X1580388Y1397599D01*
X1580460Y1398794D01*
X1580605Y1399982D01*
X1580820Y1401160D01*
X1581107Y1402323D01*
X1581463Y1403466D01*
X1581888Y1404585D01*
X1582379Y1405677D01*
X1582936Y1406737D01*
X1583555Y1407762D01*
X1584235Y1408747D01*
X1584974Y1409690D01*
X1585768Y1410586D01*
X1586614Y1411433D01*
X1587510Y1412226D01*
X1588453Y1412965D01*
X1589438Y1413645D01*
X1590463Y1414264D01*
X1591523Y1414821D01*
X1592615Y1415312D01*
X1593734Y1415737D01*
X1594877Y1416093D01*
X1596040Y1416380D01*
X1597218Y1416595D01*
X1598406Y1416740D01*
X1599601Y1416812D01*
X1600799Y1416812D01*
X1601994Y1416740D01*
X1603182Y1416595D01*
X1604360Y1416380D01*
X1605523Y1416093D01*
X1606666Y1415737D01*
X1607785Y1415312D01*
X1608877Y1414821D01*
X1609937Y1414264D01*
X1610962Y1413645D01*
X1611947Y1412965D01*
X1612890Y1412226D01*
X1613786Y1411433D01*
X1614633Y1410586D01*
X1615426Y1409690D01*
X1616165Y1408747D01*
X1616845Y1407762D01*
X1617464Y1406737D01*
X1618021Y1405677D01*
X1618512Y1404585D01*
X1618937Y1403466D01*
X1619293Y1402323D01*
X1619580Y1401160D01*
X1619795Y1399982D01*
X1619940Y1398794D01*
X1620012Y1397599D01*
X1620012Y1396401D01*
X1619940Y1395206D01*
X1619795Y1394018D01*
X1619580Y1392840D01*
X1619293Y1391677D01*
X1618937Y1390534D01*
X1618512Y1389415D01*
X1618021Y1388323D01*
X1617464Y1387263D01*
X1616845Y1386238D01*
X1616165Y1385253D01*
X1615426Y1384310D01*
X1614633Y1383414D01*
X1613786Y1382568D01*
X1612890Y1381774D01*
X1611947Y1381035D01*
X1610962Y1380355D01*
X1609937Y1379736D01*
X1608877Y1379179D01*
X1607785Y1378688D01*
X1606666Y1378263D01*
X1605523Y1377907D01*
X1604360Y1377620D01*
X1603182Y1377405D01*
X1601994Y1377260D01*
X1600799Y1377188D01*
X1599601Y1377188D01*
X1269401Y81788D02*
X1268206Y81860D01*
X1267018Y82005D01*
X1265840Y82220D01*
X1264677Y82507D01*
X1263534Y82863D01*
X1262415Y83288D01*
X1261323Y83779D01*
X1260263Y84336D01*
X1259238Y84955D01*
X1258253Y85635D01*
X1257310Y86374D01*
X1256414Y87168D01*
X1255568Y88014D01*
X1254774Y88910D01*
X1254035Y89853D01*
X1253355Y90838D01*
X1252736Y91863D01*
X1252179Y92923D01*
X1251688Y94015D01*
X1251263Y95134D01*
X1250907Y96277D01*
X1250620Y97440D01*
X1250405Y98618D01*
X1250260Y99806D01*
X1250188Y101001D01*
X1250188Y102199D01*
X1250260Y103394D01*
X1250405Y104582D01*
X1250620Y105760D01*
X1250907Y106923D01*
X1251263Y108066D01*
X1251688Y109185D01*
X1252179Y110277D01*
X1252736Y111337D01*
X1253355Y112362D01*
X1254035Y113347D01*
X1254774Y114290D01*
X1255568Y115186D01*
X1256414Y116033D01*
X1257310Y116826D01*
X1258253Y117565D01*
X1259238Y118245D01*
X1260263Y118864D01*
X1261323Y119421D01*
X1262415Y119912D01*
X1263534Y120337D01*
X1264677Y120693D01*
X1265840Y120980D01*
X1267018Y121195D01*
X1268206Y121340D01*
X1269401Y121412D01*
X1270599Y121412D01*
X1271794Y121340D01*
X1272982Y121195D01*
X1274160Y120980D01*
X1275323Y120693D01*
X1276466Y120337D01*
X1277585Y119912D01*
X1278677Y119421D01*
X1279737Y118864D01*
X1280762Y118245D01*
X1281747Y117565D01*
X1282690Y116826D01*
X1283586Y116033D01*
X1284433Y115186D01*
X1285226Y114290D01*
X1285965Y113347D01*
X1286645Y112362D01*
X1287264Y111337D01*
X1287821Y110277D01*
X1288312Y109185D01*
X1288737Y108066D01*
X1289093Y106923D01*
X1289380Y105760D01*
X1289595Y104582D01*
X1289740Y103394D01*
X1289812Y102199D01*
X1289812Y101001D01*
X1289740Y99806D01*
X1289595Y98618D01*
X1289380Y97440D01*
X1289093Y96277D01*
X1288737Y95134D01*
X1288312Y94015D01*
X1287821Y92923D01*
X1287264Y91863D01*
X1286645Y90838D01*
X1285965Y89853D01*
X1285226Y88910D01*
X1284433Y88014D01*
X1283586Y87168D01*
X1282690Y86374D01*
X1281747Y85635D01*
X1280762Y84955D01*
X1279737Y84336D01*
X1278677Y83779D01*
X1277585Y83288D01*
X1276466Y82863D01*
X1275323Y82507D01*
X1274160Y82220D01*
X1272982Y82005D01*
X1271794Y81860D01*
X1270599Y81788D01*
X1269401Y81788D01*
M02*
