M48
;GenerationSoftware,Autodesk,EAGLE,9.6.1*%
;CreationDate,2024-05-26T23:43:38Z*%
FMAT,2
ICI,OFF
METRIC,TZ,000.000
T4C0.610
T3C0.813
T2C1.016
T1C3.962
%
G90
M71
T1
X73660Y43180
X73660Y139700
X40640Y10160
X160020Y43180
X160020Y139700
X127000Y10160
X5080Y10160
X100330Y10160
X5080Y185420
X100330Y185420
T2
X154940Y181610
X157480Y181610
X160020Y181610
X147320Y184150
X149860Y184150
X152400Y184150
X154940Y184150
X157480Y184150
X160020Y184150
X162560Y181610
X162560Y184150
X165100Y181610
X167640Y181610
X170180Y181610
X172720Y181610
X175260Y181610
X177800Y181610
X165100Y184150
X167640Y184150
X170180Y184150
X172720Y184150
X175260Y184150
X177800Y184150
X105410Y78740
X105410Y76200
X105410Y73660
X105410Y71120
X107950Y78740
X107950Y73660
X107950Y71120
X105410Y68580
X107950Y68580
X105410Y66040
X105410Y63500
X105410Y60960
X105410Y58420
X105410Y55880
X105410Y53340
X107950Y66040
X107950Y63500
X107950Y60960
X107950Y58420
X107950Y55880
X107950Y53340
X105410Y50800
X107950Y50800
X105410Y48260
X105410Y45720
X105410Y43180
X105410Y40640
X105410Y38100
X105410Y35560
X107950Y48260
X107950Y45720
X107950Y43180
X107950Y40640
X107950Y38100
X107950Y35560
X105410Y175260
X105410Y172720
X105410Y170180
X105410Y167640
X107950Y175260
X107950Y172720
X107950Y170180
X107950Y167640
X105410Y165100
X107950Y165100
X105410Y162560
X105410Y160020
X105410Y157480
X105410Y154940
X105410Y152400
X105410Y149860
X107950Y162560
X107950Y160020
X107950Y157480
X107950Y154940
X107950Y152400
X107950Y149860
X105410Y147320
X107950Y147320
X105410Y144780
X105410Y142240
X105410Y139700
X105410Y137160
X105410Y134620
X105410Y132080
X107950Y144780
X107950Y142240
X107950Y139700
X107950Y137160
X107950Y134620
X107950Y132080
X19050Y78740
X19050Y76200
X19050Y73660
X19050Y71120
X21590Y78740
X21590Y76200
X21590Y73660
X21590Y71120
X19050Y68580
X21590Y68580
X19050Y66040
X19050Y63500
X19050Y60960
X19050Y58420
X19050Y55880
X19050Y53340
X21590Y66040
X21590Y63500
X21590Y60960
X21590Y58420
X21590Y55880
X21590Y53340
X19050Y50800
X21590Y50800
X19050Y48260
X19050Y45720
X19050Y43180
X19050Y40640
X19050Y38100
X19050Y35560
X107950Y76200
X21590Y48260
X21590Y45720
X21590Y43180
X21590Y40640
X21590Y38100
X21590Y35560
X19050Y175260
X19050Y172720
X19050Y170180
X19050Y167640
X21590Y175260
X21590Y172720
X21590Y170180
X21590Y167640
X19050Y165100
X21590Y165100
X19050Y162560
X19050Y160020
X19050Y157480
X19050Y154940
X19050Y152400
X19050Y149860
X21590Y142240
X21590Y162560
X21590Y160020
X21590Y157480
X21590Y154940
X21590Y152400
X21590Y149860
X19050Y147320
X21590Y147320
X19050Y144780
X19050Y142240
X19050Y139700
X19050Y137160
X19050Y134620
X19050Y132080
X21590Y144780
X139700Y181610
X142240Y181610
X137160Y184150
X139700Y184150
X142240Y184150
X144780Y181610
X144780Y184150
X147320Y181610
X149860Y181610
X152400Y181610
X10160Y167640
X171450Y87630
X10160Y165100
X10160Y71120
X10160Y68580
X97790Y167640
X97790Y165100
X99060Y71120
X99060Y68580
X97790Y179070
X21590Y137160
X21590Y139700
X21590Y132080
X21590Y134620
X168910Y76200
X168910Y73660
X168910Y71120
X171450Y76200
X171450Y73660
X171450Y71120
X168910Y68580
X171450Y68580
X168910Y66040
X168910Y63500
X168910Y60960
X168910Y58420
X168910Y55880
X168910Y53340
X171450Y66040
X171450Y63500
X171450Y60960
X171450Y58420
X171450Y55880
X171450Y53340
X168910Y50800
X171450Y50800
X168910Y48260
X168910Y45720
X168910Y43180
X168910Y40640
X168910Y38100
X168910Y35560
X171450Y48260
X171450Y45720
X171450Y43180
X171450Y40640
X171450Y38100
X171450Y35560
X116840Y181610
X119380Y181610
X121920Y181610
X116840Y184150
X119380Y184150
X121920Y184150
X124460Y181610
X124460Y184150
X127000Y181610
X129540Y181610
X132080Y181610
X134620Y181610
X127000Y184150
X129540Y184150
X132080Y184150
X134620Y184150
X137160Y181610
T3
X86360Y64770
X86360Y52070
X93980Y52070
X86360Y62230
X86360Y59690
X86360Y54610
X86360Y57150
X93980Y54610
X93980Y57150
X93980Y59690
X93980Y62230
X93980Y64770
X93980Y67310
X161290Y165100
X161290Y162560
X161290Y149860
X168910Y149860
X161290Y160020
X161290Y157480
X161290Y152400
X161290Y154940
X168910Y152400
X168910Y154940
X168910Y157480
X168910Y160020
X168910Y162560
X168910Y165100
X86360Y161290
X86360Y158750
X86360Y146050
X93980Y146050
X86360Y156210
X86360Y153670
X86360Y148590
X86360Y151130
X93980Y148590
X93980Y151130
X93980Y153670
X93980Y156210
X93980Y158750
X93980Y161290
X143510Y115570
X143510Y113030
X143510Y110490
X143510Y107950
X143510Y105410
X143510Y102870
X143510Y100330
X143510Y97790
X143510Y95250
X143510Y92710
X143510Y90170
X143510Y87630
X143510Y85090
X143510Y82550
X158750Y82550
X158750Y85090
X158750Y87630
X158750Y90170
X158750Y92710
X158750Y95250
X158750Y97790
X158750Y102870
X158750Y105410
X158750Y107950
X158750Y110490
X158750Y113030
X158750Y115570
X116840Y115570
X116840Y113030
X116840Y110490
X116840Y107950
X116840Y105410
X116840Y102870
X116840Y100330
X116840Y97790
X116840Y95250
X116840Y92710
X116840Y90170
X116840Y87630
X116840Y85090
X116840Y82550
X132080Y82550
X132080Y85090
X132080Y87630
X132080Y90170
X132080Y92710
X132080Y95250
X132080Y97790
X132080Y100330
X132080Y102870
X132080Y105410
X132080Y107950
X132080Y110490
X132080Y113030
X132080Y115570
X86360Y134620
X86360Y132080
X86360Y119380
X86360Y116840
X86360Y129540
X86360Y127000
X86360Y121920
X86360Y124460
X93980Y116840
X93980Y119380
X93980Y121920
X93980Y124460
X93980Y127000
X93980Y129540
X93980Y132080
X93980Y134620
X86360Y100330
X86360Y97790
X86360Y85090
X86360Y82550
X86360Y95250
X86360Y92710
X86360Y87630
X86360Y90170
X93980Y82550
X93980Y85090
X93980Y87630
X93980Y90170
X93980Y92710
X93980Y95250
X93980Y97790
X93980Y100330
X49530Y134620
X49530Y132080
X49530Y119380
X49530Y116840
X49530Y129540
X49530Y127000
X49530Y121920
X49530Y124460
X57150Y116840
X57150Y119380
X57150Y121920
X57150Y124460
X57150Y127000
X57150Y129540
X57150Y132080
X57150Y134620
X163830Y115570
X163830Y123190
X40640Y137160
X38100Y137160
X57150Y137160
X54610Y137160
X40640Y102870
X38100Y102870
X57150Y102870
X54610Y102870
X77470Y132080
X74930Y132080
X93980Y163830
X91440Y163830
X93980Y137160
X91440Y137160
X77470Y102870
X74930Y102870
X93980Y102870
X91440Y102870
X40640Y69850
X38100Y69850
X77470Y69850
X74930Y69850
X58420Y69850
X55880Y69850
X133350Y69850
X130810Y69850
X93980Y69850
X91440Y69850
X168910Y168910
X166370Y168910
X151130Y69850
X148590Y69850
X132080Y118110
X129540Y118110
X158750Y118110
X156210Y118110
X133350Y161290
X130810Y161290
X151130Y161290
X148590Y161290
X82550Y191770
X82550Y181610
X175260Y153670
X175260Y143510
X175260Y160020
X175260Y170180
X7620Y52070
X7620Y49530
X7620Y39370
X7620Y36830
X143510Y158750
X143510Y156210
X143510Y143510
X143510Y140970
X143510Y153670
X143510Y151130
X143510Y146050
X143510Y148590
X143510Y138430
X143510Y135890
X151130Y135890
X151130Y138430
X151130Y140970
X151130Y143510
X151130Y146050
X151130Y148590
X151130Y151130
X151130Y153670
X151130Y156210
X151130Y158750
X125730Y158750
X125730Y156210
X125730Y143510
X125730Y140970
X125730Y153670
X125730Y151130
X125730Y146050
X125730Y148590
X125730Y138430
X125730Y135890
X133350Y135890
X133350Y138430
X133350Y140970
X133350Y143510
X133350Y146050
X133350Y148590
X133350Y151130
X133350Y153670
X133350Y156210
X133350Y158750
X143510Y67310
X143510Y64770
X143510Y52070
X143510Y49530
X143510Y62230
X143510Y59690
X143510Y54610
X143510Y57150
X143510Y46990
X143510Y44450
X151130Y44450
X151130Y46990
X151130Y49530
X151130Y52070
X151130Y54610
X151130Y57150
X151130Y59690
X151130Y62230
X151130Y64770
X151130Y67310
X125730Y67310
X125730Y64770
X125730Y52070
X125730Y49530
X125730Y62230
X125730Y59690
X125730Y54610
X125730Y57150
X125730Y46990
X125730Y44450
X133350Y44450
X133350Y46990
X133350Y49530
X133350Y52070
X133350Y54610
X133350Y57150
X133350Y59690
X133350Y62230
X133350Y64770
X133350Y67310
X50800Y67310
X50800Y64770
X50800Y52070
X58420Y52070
X50800Y62230
X50800Y59690
X50800Y54610
X50800Y57150
X58420Y54610
X58420Y57150
X58420Y59690
X58420Y62230
X58420Y64770
X58420Y67310
X158750Y100330
X167640Y115570
X167640Y123190
X45720Y105410
X45720Y113030
X44450Y38100
X44450Y45720
X49530Y45720
X49530Y38100
X49530Y100330
X49530Y97790
X49530Y85090
X49530Y82550
X49530Y95250
X49530Y92710
X49530Y87630
X49530Y90170
X57150Y82550
X57150Y85090
X57150Y87630
X57150Y90170
X57150Y92710
X57150Y95250
X57150Y97790
X57150Y100330
X69850Y129540
X69850Y127000
X69850Y114300
X69850Y111760
X69850Y124460
X69850Y121920
X69850Y116840
X69850Y119380
X77470Y111760
X77470Y114300
X77470Y116840
X77470Y119380
X77470Y121920
X77470Y124460
X77470Y127000
X77470Y129540
X69850Y100330
X69850Y97790
X69850Y85090
X69850Y82550
X69850Y95250
X69850Y92710
X69850Y87630
X69850Y90170
X77470Y82550
X77470Y85090
X77470Y87630
X77470Y90170
X77470Y92710
X77470Y95250
X77470Y97790
X77470Y100330
X33020Y134620
X33020Y132080
X33020Y119380
X33020Y116840
X33020Y129540
X33020Y127000
X33020Y121920
X33020Y124460
X40640Y116840
X40640Y119380
X40640Y121920
X40640Y124460
X40640Y127000
X40640Y129540
X40640Y132080
X40640Y134620
X33020Y100330
X33020Y97790
X33020Y85090
X33020Y82550
X33020Y95250
X33020Y92710
X33020Y87630
X33020Y90170
X40640Y82550
X40640Y85090
X40640Y87630
X40640Y90170
X40640Y92710
X40640Y95250
X40640Y97790
X40640Y100330
X33020Y67310
X33020Y64770
X33020Y52070
X40640Y52070
X33020Y62230
X33020Y59690
X33020Y54610
X33020Y57150
X40640Y54610
X40640Y57150
X40640Y59690
X40640Y62230
X40640Y64770
X40640Y67310
X69850Y67310
X69850Y64770
X69850Y52070
X77470Y52070
X69850Y62230
X69850Y59690
X69850Y54610
X69850Y57150
X77470Y54610
X77470Y57150
X77470Y59690
X77470Y62230
X77470Y64770
X77470Y67310
X86360Y67310
T4
X87947Y140653
X119380Y140970
X120332Y173990
X153988Y176847
X82233Y134938
X97472Y176530
X150813Y175260
X82868Y129857
X103187Y177482
X148590Y176212
X137478Y125095
X119697Y125730
X121285Y168593
X145733Y169228
X81280Y124142
X101282Y180022
X110807Y180022
X116522Y174308
X67945Y135890
X91440Y115570
X91122Y127000
X71755Y99060
X89217Y95567
X88265Y105727
X68263Y105727
X66993Y107632
X74613Y109855
X89217Y110807
X68898Y70168
X87630Y75565
X87947Y123190
X73343Y70168
X87630Y73660
X73978Y94932
X74930Y74295
X81598Y65087
X81915Y86360
X91757Y75565
X81915Y74613
X79693Y85408
X72708Y98107
X73343Y108585
X91122Y108902
X83185Y91440
X83503Y119062
X81915Y87947
X82233Y114617
X83820Y98107
X120650Y101600
X122237Y82868
X137478Y81280
X139065Y40958
X137478Y99060
X139700Y84138
X114300Y19050
X158433Y19368
X138748Y86360
X140653Y82868
X174625Y77153
X125412Y86995
X125412Y76518
X103505Y155258
X104140Y166053
X94297Y30162
X146050Y27940
X147003Y64452
X66675Y151448
X66993Y114300
X65723Y153670
X22860Y158433
X18098Y74930
X66358Y93027
X64770Y146050
X66358Y87947
X64135Y144780
X78423Y79693
X101917Y76518
X83185Y89852
X83820Y80328
X100965Y77470
X79693Y56832
X43815Y57467
X44132Y100012
X68898Y133350
X36513Y98742
X68898Y102552
X146685Y80963
X148590Y73660
X121920Y40640
X119697Y54610
X148590Y49212
X90805Y146050
X109220Y181292
X148590Y167640
X166053Y150813
X142875Y118110
X129540Y135890
X147320Y139383
X110490Y135573
X116840Y79058
X117475Y70168
X73025Y81915
X86360Y71438
X86995Y103187
X70485Y103187
X79693Y103187
X86360Y80010
X37783Y116205
X24130Y137160
X31115Y38100
X26670Y29845
X54610Y116205
X26987Y80645
X38100Y80963
X54610Y111760
X78740Y137160
X151130Y119697
X151765Y164465
X80010Y138430
X105092Y100330
X134620Y73343
X134303Y79375
X105092Y81598
X161925Y113347
X69850Y140018
X80645Y167640
X157798Y170180
X72073Y177482
X156210Y171450
X109220Y173673
X109220Y171768
X68580Y171450
X98107Y130810
X98425Y124777
X127635Y113347
X161290Y23495
X87630Y25400
X62547Y72390
X52070Y82868
X175577Y40323
X175577Y35878
X85090Y26352
X139383Y111125
X163195Y159068
X52070Y93980
X139383Y93980
X162878Y114300
X113665Y84773
X164783Y59690
X164465Y74930
X114617Y77470
X41593Y144780
X44767Y48577
X27305Y118110
X26670Y140653
X39688Y141923
X81598Y44450
X62230Y142875
X41593Y110172
X105727Y120650
X38418Y142240
X71120Y46990
X61277Y143828
X27305Y93980
X25400Y149860
X28257Y53340
X28892Y73343
X40005Y79693
X42545Y93980
X46672Y53022
X37783Y147003
X46672Y87947
X35878Y56197
X117475Y149860
X118427Y120650
X97155Y107632
X88900Y53340
X65723Y70485
X70803Y48577
X101282Y145098
X100647Y130175
X100965Y126682
X100330Y48895
X149860Y163513
X145415Y163195
X146685Y166053
X127317Y164783
X147320Y153670
X138113Y148590
X137160Y147320
X128587Y101600
X136208Y144780
X138748Y105727
X138430Y142240
X135255Y150178
X137478Y108267
X127000Y105410
X126682Y68898
X117792Y66993
X116522Y52070
X112077Y104140
X111760Y143510
X129222Y100330
X129222Y116522
X121285Y116522
X115570Y146050
X141605Y96837
X45402Y46990
X138430Y95885
X100330Y34608
X42228Y38418
X36513Y51117
X134938Y93027
X132398Y124142
X106997Y124777
X104775Y128905
X7302Y136525
X137795Y78423
X124142Y79058
X145098Y71120
X156210Y53657
X157798Y68263
X118427Y52387
X118427Y96520
X120332Y98107
X120967Y100012
X141923Y63500
X119380Y57150
X127952Y94932
X146368Y60642
X146368Y58420
X128270Y92710
X145098Y55880
X120332Y64770
X120332Y89535
X115570Y129222
X126682Y72073
X129857Y71438
X111760Y152718
X110807Y132080
X113665Y129222
X132398Y129222
X128270Y58102
X113665Y61277
X114617Y157163
X115252Y137160
X130492Y60642
X134938Y119697
X98425Y107632
X90170Y60960
X113347Y158433
X113665Y139700
X122872Y63182
X123507Y48260
X117475Y127000
X114617Y126682
X113347Y118745
X103187Y110807
X111760Y162243
X116522Y148908
X121920Y65723
X122237Y50800
X109220Y153988
X116840Y54610
X116522Y66993
X117475Y154623
X111760Y167323
X133033Y72073
X128270Y151448
X127635Y170180
X132080Y73660
X122237Y171450
X127952Y104457
X136843Y104140
X128905Y170180
X129540Y153670
X136843Y72708
X136843Y62547
X35878Y52387
X61912Y17463
X144145Y17780
X13970Y144463
X11112Y113982
X158115Y135573
X156528Y47625
X123190Y123190
X34925Y58102
X47942Y30162
X153035Y33655
X18098Y156210
X8255Y146368
X9843Y66993
X165735Y132080
X164783Y53657
X72390Y61912
X104457Y22860
X167958Y177482
X88900Y43180
X105092Y186372
X126682Y186372
X176530Y47307
X163513Y176530
X150178Y21907
X23177Y21907
X147955Y22860
X12382Y152718
X11430Y67628
X158115Y134303
X13970Y29845
X141923Y20955
X145733Y52705
X13970Y156845
X13652Y67310
X152718Y124777
X154623Y122872
X30162Y72390
X49847Y70803
X73978Y20003
X143193Y20955
X147003Y54610
X26352Y160338
X29845Y68580
X146368Y161290
X147320Y152400
X31115Y159385
X30797Y71120
X141288Y163195
X141923Y157480
X30162Y161608
X30162Y78423
X28575Y113982
X164783Y144145
X163513Y128905
X157163Y126682
X155258Y62547
X25400Y168910
X28257Y79375
X136843Y139700
X110807Y129222
X26035Y31432
X24447Y119380
X106045Y31750
X20003Y32067
X170180Y134620
X171133Y155893
X22860Y120967
X154940Y132080
X154940Y142558
X119697Y127000
X163513Y126047
X118427Y138430
X175577Y113030
X176530Y39370
X125412Y185420
X108902Y184467
X89217Y164783
X164465Y38100
X139700Y28257
X134303Y177165
X129857Y166053
X117475Y166053
X63182Y124460
X59372Y120650
X42863Y63817
X15875Y147638
X15557Y69850
X82550Y50800
X83503Y61912
X102552Y148590
X104140Y72708
X51752Y28892
X154940Y33020
X161925Y67310
X36830Y113030
X58420Y27305
X174625Y36830
X43815Y51435
X127317Y180022
X113982Y182562
X78740Y182880
X47307Y66040
X14922Y173038
X14922Y72390
X28892Y72073
X98107Y40323
X101282Y128270
X120015Y135890
X120650Y128587
X156210Y128905
X156210Y152400
X161290Y186055
X97155Y39370
X16192Y43498
X10478Y128587
X30797Y39688
X28575Y41910
X101600Y135890
X103505Y127317
X157163Y127952
X141288Y172403
X158750Y172085
X60642Y83503
X57150Y48577
X157163Y166370
X171768Y146685
X171768Y100965
X172720Y148273
X173038Y100965
X166688Y113665
X137478Y119380
X137478Y112077
X152718Y147320
X161290Y134303
X169863Y114617
X128270Y177482
X126365Y177165
X127952Y126047
X144145Y122555
X114617Y105410
X113665Y49530
M30